<svg width="649" height="314" viewBox="0 0 649 314" fill="none" xmlns="http://www.w3.org/2000/svg">
<path d="M330.1 158.88C320.6 158.88 316.6 148.38 313.1 155.88C309.6 163.38 304.35 168.63 298.35 174.63C292.35 180.63 289.1 187.38 299.1 187.38C309.1 187.38 314.1 171.88 319.1 176.88C324.1 181.88 311.6 178.88 320.1 187.38C328.6 195.88 325.1 203.88 335.6 193.38C346.1 182.88 341.6 179.38 354.1 185.88C366.6 192.38 367.35 200.13 375.1 192.38C382.85 184.63 377.1 182.88 389.1 188.88C401.1 194.88 397.1 202.88 404.35 191.63C411.6 180.38 427.35 190.63 414.35 177.63C401.35 164.63 405.6 163.88 393.1 167.88C380.6 171.88 374.1 174.88 374.1 165.38C374.1 155.88 370.7 145.58 363.1 153.18C355.5 160.78 349.6 165.38 342.6 165.38C335.6 165.38 330.1 158.88 330.1 158.88Z" fill="white"/>
<path d="M228.6 183.88C220.1 183.88 218.85 179.13 214.1 183.88C209.35 188.63 203.1 188.38 203.1 191.38C203.1 194.38 199.6 196.38 205.1 196.38C210.6 196.38 212.16 195.23 215.31 198.38C218.46 201.53 212.55 207.43 218.45 201.53C224.35 195.63 219.1 195.44 224.35 192.91C229.6 190.38 236.1 193.91 231.1 188.91C226.1 183.91 228.6 183.88 228.6 183.88Z" fill="white"/>
<path d="M248.6 240.38C248.6 240.38 228.8 223.38 217.45 223.38C206.1 223.38 201.6 228.38 196.6 223.38C191.6 218.38 201.6 219.88 187.35 222.63C173.1 225.38 170.6 229.38 166.6 225.38C162.6 221.38 161.1 220.09 157.6 220.09C154.1 220.09 151.6 230.23 157.6 230.23C163.6 230.23 169.6 235.38 173.6 235.38C177.6 235.38 180.85 235.63 182.6 237.38C184.35 239.13 183.1 241.63 187.6 240.38C192.1 239.13 188.1 237.38 195.1 234.88C202.1 232.38 205.1 233.38 207.1 235.38C209.1 237.38 211.8 230.38 217.45 230.38C223.1 230.38 230.54 231.01 232.9 233.38C235.26 235.75 242.6 243.88 242.6 243.88C242.6 243.88 239.6 244.88 243.1 248.38C246.6 251.88 244.85 249.63 248.6 253.38L258.1 262.88C261.85 266.63 269.6 262.88 273.6 266.88C277.6 270.88 283.6 267.88 277.6 261.88C271.6 255.88 276.1 251.88 276.1 251.88C276.1 251.88 281.91 251.65 280.1 249.88C278.29 248.11 283.31 248.63 277.1 242.38C273.185 238.606 268.032 236.384 262.6 236.13C262.6 236.13 264.98 233.63 264.98 238.5C264.98 243.37 270.17 245.19 264.98 246.88C259.79 248.57 257.6 254.38 253.1 247.38L248.6 240.38Z" fill="white"/>
<path d="M148.1 246.88C148.1 248.88 151.6 257.88 148.1 261.38L140.78 268.7C138.35 271.13 132.6 273.38 130.1 273.38C127.6 273.38 124.85 276.63 121.6 273.38C119.449 271.129 117.6 268.608 116.1 265.88C116.1 265.88 116.1 263.88 113.1 263.88C110.1 263.88 109.85 268.13 105.6 263.88L101.35 259.63L107.6 256.38L116.1 255.88C116.1 255.88 120.6 255.38 122.6 257.38C124.6 259.38 121.05 260.85 126.08 260.85C131.11 260.85 129.08 258.11 133.84 258.11C138.6 258.11 140.35 257.11 142.6 254.88C144.85 252.65 148.1 246.88 148.1 246.88Z" fill="white"/>
<path d="M116.1 244.4C116.1 244.4 102.1 239.4 98.1 239.4C94.1 239.4 96.6 236.4 87.6 236.4C78.6 236.4 77.1 231.4 72.1 236.4C67.1 241.4 65.6 244.4 63.1 246.9C60.6 249.4 53.1 246.9 53.1 246.9C49.3258 247.734 45.4638 248.103 41.6 248C34.1 248 33.2 244.18 30.1 241.08C27 237.98 27.99 238.56 23.6 234.17C19.21 229.78 13.25 218.46 11.6 220.1C9.95001 221.74 7.35001 223.1 11.6 227.39C15.85 231.68 21.06 229.51 16.6 233.97C12.14 238.43 17.1 240.41 13.1 244.41C9.10001 248.41 12.89 254.48 9.29001 250.89C5.69001 247.3 4.29001 255.89 9.29001 255.89C14.29 255.89 21.1 251.89 21.1 255.89C21.1 259.89 22.62 263.35 25.1 260.89C27.58 258.43 28.1 255.15 30.84 255.15C33.58 255.15 32.1 250.92 38.1 256.92C44.1 262.92 46.6 262.92 46.6 262.92C46.6 262.92 47.87 265.13 52.1 260.92C56.33 256.71 56.05 256.92 61.1 256.92C66.15 256.92 71.87 261.17 74.62 258.42C77.37 255.67 77.37 247.17 81.62 251.42C85.87 255.67 93.87 252.17 88.62 257.42C83.37 262.67 79.37 262.17 75.62 265.92C71.87 269.67 69.12 272.42 71.87 272.42C74.62 272.42 78.62 275.42 81.62 272.42C83.4134 270.627 85.6601 269.355 88.12 268.74C88.12 268.74 89.62 270.09 89.62 273.74C89.62 277.39 86.12 277.41 89.62 277.41C93.12 277.41 95.68 278.8 95.68 274.85C95.68 270.9 92.62 265.91 92.62 265.91C92.62 265.91 88.14 265.91 93.12 260.91C98.1 255.91 99.12 251.91 99.12 251.91C99.12 251.91 106.62 251.41 109.62 251.41C112.62 251.41 118.62 248.8 118.62 248.8C118.62 248.8 122.62 253.2 122.62 248.8C122.62 244.4 116.1 244.4 116.1 244.4Z" fill="white"/>
<path d="M44.6 138.88C44.6 138.88 45.1 140.88 53.6 132.38C62.1 123.88 61.05 121.88 64.33 121.88C67.61 121.88 66.1 119.38 72.1 119.38H92.1C99.1 119.38 106.85 122.63 101.35 117.13C95.85 111.63 96.1 116.38 91.6 111.88C87.1 107.38 85.1 107.38 77.1 107.38C69.1 107.38 61.1 101.38 61.1 107.38C61.1 113.38 61.35 113.13 57.6 116.88C53.85 120.63 47.6 116.88 47.6 121.88C47.6 126.88 44.6 124.36 44.6 129.88V138.88Z" fill="white"/>
<path d="M33.6 113.88C38.6 113.88 44.6 111.88 44.6 106.88C44.6 101.88 40.6 95.88 44.6 95.88C48.6 95.88 53.1 96.38 53.1 92.88C53.1 89.38 54.1 88.38 56.35 86.13C58.6 83.88 64.35 84.38 64.35 84.38C64.35 84.38 63.62 89.38 67.62 89.38C71.62 89.38 67.74 93.26 73.93 87.07C80.12 80.88 78.12 77.88 81.62 79.38C85.12 80.88 89.43 77.31 91.12 79C92.81 80.69 101.37 80.69 101.37 80.69L106.62 78.53C106.62 78.53 101.87 84.13 99.12 86.88C96.37 89.63 88.12 91.88 93.62 91.88C99.12 91.88 98.62 92.88 101.37 92.88C104.12 92.88 103.62 89.88 106.62 89.88C109.472 89.7337 112.312 89.3997 115.12 88.88H119.12C121.12 88.88 125.53 84.88 125.53 84.88C125.53 84.88 131.62 78.53 137.12 78.53C141.349 78.3776 145.555 77.8251 149.68 76.88C149.68 76.88 138.12 74.38 143.12 74.38C148.12 74.38 152.62 71.88 156.62 71.88C160.62 71.88 164.12 69.38 165.62 67.88L170.62 62.88H177.62L180.12 59.38H168.6C161.1 59.38 159.42 64.82 153.98 59.38C148.54 53.94 146.6 51.88 141.1 51.88C135.6 51.88 134.41 53.88 125.51 53.88C116.61 53.88 108.98 53.25 106.85 55.38C104.72 57.51 107.1 58.88 101.35 58.88C95.6 58.88 94.1 56.38 94.1 54.38C94.1 52.38 90.6 47.38 89.1 48.88C87.6 50.38 86.1 52.38 86.1 54.88C86.1 57.38 88.6 59.88 90.6 61.88C92.6 63.88 92.6 63.88 96.6 63.88C100.6 63.88 103.22 61.38 103.22 65.38C103.22 69.38 106.1 71.38 96.6 71.38C87.1 71.38 86.1 70.88 78.6 70.88C71.1 70.88 63.6 72.88 60.6 69.88C57.6 66.88 64.1 64.38 56.6 64.38C49.1 64.38 44.6 60.88 42.1 63.38C39.6 65.88 27.6 66.38 23.1 70.88C18.6 75.38 18.1 77.6 18.1 81.24C18.1 84.88 11.1 87.88 14.6 86.38C18.1 84.88 27.67 85.17 31.6 81.24C35.53 77.31 32.47 75.06 37.79 75.06C43.11 75.06 48.42 77.42 44.6 81.24C40.78 85.06 32.6 80.88 32.6 85.88C32.6 90.88 35.1 90.88 36.6 92.38C38.1 93.88 35.1 91.88 35.1 96.88C35.1 101.88 32.1 101.55 32.1 104.71C32.3293 107.805 32.8313 110.873 33.6 113.88Z" fill="white"/>
<path d="M465.1 51.38C463.86 51.38 462.5 51.31 461.05 51.22C453.19 50.72 443.05 49.44 438.6 53.88C433.35 59.13 432.1 61.38 430.1 61.38C428.1 61.38 422.1 65.88 419.33 65.88C416.56 65.88 416.6 64.88 412.6 68.88C408.6 72.88 404.1 77.38 400.6 73.88L395.35 68.63C395.35 68.63 395.84 57.16 390.1 62.9C384.36 68.64 385.6 68.9 385.6 75.14C385.6 81.38 381.17 78.14 378.1 81.24C375.03 84.34 370.1 84.38 372.6 86.88C375.1 89.38 375 88.24 375 84.31C375 80.38 379.06 88.88 379.06 73.88C379.06 58.88 383.06 54.88 383.06 54.88C383.06 54.88 387.45 48.55 389.56 50.66C391.67 52.77 397.56 50.88 401.06 54.38C404.56 57.88 394.06 63.38 401.06 63.38C408.06 63.38 408.81 64.13 412.56 60.38C416.31 56.63 416.02 53.88 419.29 53.88C422.56 53.88 423.06 50.23 428.06 50.23C431.938 50.0748 435.791 49.5287 439.56 48.6H447.56C453.1 48.6 465.1 51.38 465.1 51.38Z" fill="white"/>
<path d="M475.6 55.88C475.6 55.88 481.84 62.17 475.6 68.4C469.36 74.63 471.1 81.24 465.1 81.24C459.1 81.24 444.1 92.38 441.1 95.38C438.1 98.38 434.1 104.71 429.1 104.71C424.1 104.71 422.3 100.92 418.51 104.71C415.831 107.16 412.605 108.933 409.1 109.88H426.6C426.6 109.88 429.1 112.38 431.6 109.88C434.1 107.38 435.94 108.88 440.1 104.71C444.26 100.54 443.1 95.38 448.1 95.38C453.1 95.38 450.6 94.38 456.1 94.38C461.6 94.38 464.69 91.62 468.1 88.2C470.803 85.3718 474.475 83.6683 478.38 83.43C481.1 83.43 483.3 84.1 483.3 81.24C483.3 78.38 477.85 76.63 480.1 74.38C482.35 72.13 478.6 68.38 486.1 68.38H499.6C499.6 68.38 501.6 62.86 503.6 60.86C505.6 58.86 509.1 58.86 512.1 58.86C515.1 58.86 517.6 59.36 517.6 61.36C517.6 63.36 509.1 65.41 509.1 68.36C509.1 71.31 516.1 70.36 517.6 71.84C519.1 73.32 517.1 68.34 522.1 73.34C527.1 78.34 526.1 83.39 526.1 83.39C526.1 83.39 527.83 89.67 530.1 83.39C532.37 77.11 542.1 68.39 542.1 68.39H547.6C550.6 68.39 554.1 68.39 554.1 65.39C554.1 62.39 551.1 58.39 554.1 58.39C557.1 58.39 560.1 59.89 563.1 62.89C566.1 65.89 564.65 68.41 568.63 68.41C572.61 68.41 568.63 48.61 568.63 48.61C566.357 48.1507 564.269 47.0305 562.63 45.39C559.88 42.64 559.63 39.89 564.13 39.89H574.63C580.63 39.89 592.63 45.39 598.13 39.89C603.63 34.39 602.63 32.39 608.13 32.39C613.63 32.39 629.13 43.89 617.63 32.39C606.13 20.89 586.63 13.89 581.13 13.89C575.63 13.89 573.63 7.88996 566.63 7.88996C559.63 7.88996 535.88 1.63996 529.63 7.88996C523.38 14.14 508.63 28.89 497.13 26.39C485.63 23.89 478.63 20.89 476.13 20.89C473.63 20.89 462.63 19.89 458.13 24.39C453.63 28.89 449.88 31.64 453.63 35.39C457.38 39.14 465.47 45 469.1 48.6C471.394 50.9102 473.563 53.3402 475.6 55.88V55.88Z" fill="white"/>
<path d="M325 18.38C332.3 25.68 345.85 25.13 349.1 21.88C352.35 18.63 365.74 16.38 371.92 16.38C378.1 16.38 386.1 11.66 388.6 20.27C391.1 28.88 378.6 32.38 388.6 32.38C398.6 32.38 399.6 37.88 405.1 32.38C410.6 26.88 416.1 33.88 416.1 22.38C416.1 10.88 415.35 13.63 412.1 10.38C408.85 7.12999 398.1 0.379991 395.6 0.379991H360.1C351.6 0.379991 327.49 0.209991 322.6 5.09999L314.72 13C309.22 18.5 322.9 24.89 325 24.89C327.1 24.89 327.1 17.61 327.1 17.61L325 18.38Z" fill="white"/>
<path d="M140.94 13C142.412 13.5349 143.831 14.2044 145.18 15C149.35 17.63 142.44 17.63 152.94 17.63C165.6 17.63 164.94 9.41 172.94 9.41C180.94 9.41 185.6 1.52 194.94 5.13C204.28 8.74 211.52 10.91 217.23 10.91H247.6C252.27 10.91 257.85 13.32 260.27 10.91C262.69 8.5 268.27 8.08 272.27 8.08C276.27 8.08 277.6 14.08 277.6 14.08C277.6 14.08 283.6 13.19 283.6 17.63C283.6 22.07 262.27 21.41 262.27 21.41C265.508 20.6658 268.882 20.765 272.071 21.6983C275.259 22.6315 278.155 24.3675 280.48 26.74C288.71 34.97 292.55 37.91 295.6 34.85C298.65 31.79 300.27 32.08 306.27 32.08C309.979 32.1499 313.536 33.5724 316.27 36.08L308.27 20.16C308.27 20.16 306.27 14.16 306.27 11.46C306.27 8.76 307.6 5.18 300.94 5.18C294.28 5.18 290.27 0.380005 285.6 0.380005H246.27C237.6 0.380005 226.94 5.1 220.27 5.1C213.6 5.1 207.74 0.380005 202 0.380005H169.6C165.6 0.380005 138.27 5.1 138.27 5.1L140.94 13Z" fill="white"/>
<path d="M150.63 22.68C156.63 22.68 165.1 22.55 161.94 25.68C158.78 28.81 147.6 32.68 144.6 32.68C141.6 32.68 133.27 30.02 128.94 30.02C124.61 30.02 115.94 32.68 113.27 32.68H100.94C97.6 32.68 96.94 31.02 94.94 31.02C92.94 31.02 93.27 34.68 88.27 32.68C83.27 30.68 83.27 27.97 83.27 27.97H70.94C70.94 27.97 73.94 29.92 66.94 27.97C59.94 26.02 59.27 24.35 59.27 24.35C59.27 24.35 53.1 21.85 50.94 24.02C48.78 26.19 42.6 26.02 42.6 26.02L44.6 20.35C44.6 20.35 42.66 14.51 39.6 17.57C36.54 20.63 21.1 18.1 21.1 19.35C21.1 20.6 34.35 21.85 18.35 21.85C2.35 21.85 0 22.38 0 22.38V8.88003H11.85C13.6 8.88003 20.85 11.88 24.35 11.88C27.85 11.88 31.6 8.88003 34.35 8.88003C37.1 8.88003 35.85 6.38003 43.6 8.88003C51.35 11.38 52.35 12.13 54.85 12.13C57.35 12.13 61.6 12.13 62.6 11.13C63.6 10.13 69.6 11.63 72.85 11.63C75.2824 11.6927 77.7063 11.9434 80.1 12.38C80.1 12.38 80.1 11.88 82.6 11.88C85.1 11.88 85.85 11.13 87.35 11.13C88.85 11.13 89.35 11.38 92.85 11.38C96.35 11.38 98.1 11.13 99.35 11.13C100.6 11.13 100.35 10.38 103.22 10.38H111.35L118.85 13.13C118.85 13.13 127.1 16.36 124.6 16.36C122.1 16.36 115.85 17.6 113.35 17.6C110.85 17.6 109.87 16.6 111.62 18.36C113.37 20.12 117.1 19.36 119.62 19.36H145.12C146.691 19.3853 148.233 19.7829 149.62 20.52L150.63 22.68Z" fill="white"/>
<path d="M96.86 6.38C86.35 9.63 76.47 7.77 73.86 7.77C71.25 7.77 73.1 4.93 68.1 4.93C63.1 4.93 51.1 6.62 48.6 6.62H29.1C27.85 6.62 28.35 6.41 24.85 7.77C21.35 9.13 15.6 8.3 14.6 8.3C13.6 8.3 10.6 6.74 6.1 6.74H0V0.380005H138.27C138.27 0.380005 132.6 4.46 133.85 4.46C135.1 4.46 137.69 5.71 135.1 6.38C132.51 7.05 107.37 3.13 96.86 6.38Z" fill="white"/>
<path d="M598.1 9.04999C600.6 10.05 601.44 10.21 605.94 10.21C610.44 10.21 607.6 -0.29001 612.94 9.04999C618.28 18.39 620.39 18.38 621.75 18.38C623.11 18.38 623.44 19.21 626.94 15.71C630.44 12.21 632.27 11.82 634.77 11.82C637.27 11.82 639.44 12.6 641.77 11.82C642.638 11.557 643.39 11.0071 643.904 10.2604C644.419 9.51365 644.664 8.61438 644.6 7.70999C644.6 6.20999 646.6 4.37999 643.44 4.37999H637.44C633.44 4.37999 636.27 4.54999 629.44 3.04999C622.61 1.54999 622.1 -0.95001 618.44 0.37999C614.78 1.70999 615.44 1.37999 609.44 2.54999C603.44 3.71999 597.27 0.70999 597.27 3.04999C597.329 4.6171 597.728 6.15261 598.44 7.54999L598.1 9.04999Z" fill="white"/>
<path d="M604.1 58.05C604.1 58.05 608.84 66.17 606.6 68.4C604.36 70.63 605.35 67.63 600.1 72.88L591.6 81.38C588.35 84.63 577.6 85.88 577.6 85.88C577.6 85.88 572.6 94.38 577.6 94.38H597.27C597.27 94.38 600.35 89.13 605.6 94.38C610.85 99.63 614.6 102.38 614.6 97.38C614.6 92.38 621.25 93.38 621.25 83.88C621.25 74.38 621.09 71.88 624.6 68.4C628.11 64.92 635.85 67.13 629.1 60.4C622.35 53.67 620.6 48.9 616.1 53.4C611.6 57.9 607.6 58.05 604.1 58.05Z" fill="white"/>
<path d="M638.1 102.38C638.1 109.38 632.1 115.88 628.1 119.88C624.1 123.88 620.6 123.88 615.6 123.88C610.6 123.88 591.6 124.38 591.6 127.88C591.6 131.38 595.85 135.13 588.1 138.88C580.35 142.63 568.6 140.38 568.6 145.38C568.6 150.38 566.1 151.38 568.6 153.88L575.38 160.66C575.38 160.66 580.1 159.38 585.6 153.88C591.1 148.38 599.99 150.54 602.8 150.54C605.61 150.54 608.6 150.88 608.6 145.38C608.6 139.88 613.6 136.38 616.6 136.38C619.782 136.212 622.953 135.878 626.1 135.38C626.1 135.38 626.87 132.79 631.78 127.88C636.69 122.97 645.23 119.38 645.23 119.38C645.23 119.38 650.34 116.11 645.23 110.99C642.521 108.412 640.128 105.522 638.1 102.38Z" fill="white"/>
<path d="M515.43 211.38C519.14 215.09 523.6 213.38 526.6 216.38C529.6 219.38 525.98 218.75 528.1 220.88C530.22 223.01 535.35 223.38 539.6 223.38C543.85 223.38 549.23 222 550.6 223.38L556.85 229.63C559.73 232.5 562.35 232.5 562.35 232.5C562.571 232.255 562.841 232.06 563.143 231.926C563.444 231.792 563.77 231.723 564.1 231.723C564.43 231.723 564.756 231.792 565.057 231.926C565.359 232.06 565.629 232.255 565.85 232.5C567.67 234.32 563.1 239.63 558.6 238.13C554.1 236.63 552.6 234.13 548.85 234.13C545.1 234.13 544.35 238.88 537.35 235.63C534.168 234.246 531.079 232.659 528.1 230.88C528.1 230.88 525.6 231.13 520.6 229.13C515.6 227.13 517.71 224.66 515.43 222.38C513.15 220.1 510.1 218.14 505.85 219.64C501.6 221.14 496.1 224.64 492.6 221.13C490.286 218.941 487.443 217.391 484.35 216.63C482.108 216.86 479.853 216.944 477.6 216.88C472.35 216.88 468.6 217.64 468.6 219.64C468.6 221.64 467.1 220.88 470.85 224.64C474.6 228.4 477.85 228.39 477.85 231.14C477.85 233.89 473.98 232.76 476.48 235.26C478.98 237.76 480.73 236.76 483.85 239.89C486.97 243.02 486.98 242.14 486.98 245.39C486.98 248.64 487.73 249.95 485.67 249.95C483.61 249.95 480.89 248.73 482.1 249.95C483.31 251.17 487.23 251.51 489.1 253.39C490.97 255.27 493.85 255.14 499.1 255.14C504.35 255.14 506.48 256.51 507.85 257.89C509.22 259.27 509.85 259.64 509.85 261.39C509.85 263.14 505.6 262.14 505.6 263.89C505.6 265.64 509.1 266.89 511.1 268.89L515.43 273.21C516.98 274.76 516.48 278.26 519.1 280.89C521.72 283.52 524.73 281.51 526.6 283.39C528.47 285.27 529.35 285.89 531.85 288.39C534.35 290.89 537.85 291.39 542.1 291.39C546.35 291.39 545.35 293 548 293C549.106 293.014 550.198 293.254 551.208 293.706C552.217 294.159 553.123 294.813 553.87 295.63C555.024 296.558 556.405 297.163 557.87 297.38C557.87 297.38 556.12 300.38 550.87 302.13C545.62 303.88 548.12 304.13 541.37 305.63C534.62 307.13 533.12 309.63 527.62 309.63C522.12 309.63 527.02 310.88 515.45 309.63C507.789 308.722 500.084 308.221 492.37 308.13C488.12 308.13 484.37 308.63 479.87 308.63C475.37 308.63 468.33 305.63 468.33 305.63C467.023 304.702 465.472 304.18 463.87 304.13C461.37 304.13 472.62 300.63 454.62 304.88C436.62 309.13 432.87 310.18 431.12 310.18C429.37 310.18 424.12 307.63 423.12 306.63C422.12 305.63 424.33 303.38 419.35 303.38C414.37 303.38 409.12 302.13 409.12 304.13C409.12 306.13 414.75 309.75 412.87 311.63C410.99 313.51 386.75 314.25 385.62 313.13C383.223 311.169 380.216 310.108 377.12 310.13C373.12 310.13 366.37 308.63 360.87 308.63C355.37 308.63 352.5 310.25 350.37 308.13C348.24 306.01 337.87 303.13 347.37 301.38C356.87 299.63 350.62 296.63 366.37 296.63C382.12 296.63 379.37 296.88 391.37 296.88H419.37C421.89 296.88 434.37 295.38 434.37 290.13C434.37 284.88 433.5 284 433.5 284C433.5 284 422.58 280.13 419.35 280.13C416.12 280.13 404.35 278.13 417.35 276.63C430.35 275.13 430.35 275.38 433.85 275.38C437.35 275.38 450.35 267.88 429.85 267.88C409.35 267.88 405.35 269.63 397.85 267.88C390.35 266.13 374.85 260.16 374.85 257.27C374.85 254.38 370.85 251.38 373.6 251.38C376.35 251.38 384.1 250.13 391.1 251.63C398.142 253.012 405.077 254.897 411.85 257.27C418.1 259.63 425.6 262.38 431.85 262.38C438.1 262.38 457.1 257.27 457.1 257.27C457.1 257.27 459.35 252.38 456.6 249.63C453.85 246.88 440.85 244.13 445.35 242.88C449.85 241.63 466.6 239.13 466.6 239.13C466.6 239.13 469.6 235.38 461.35 233.38C453.1 231.38 451.85 232.63 451.85 231.38C451.85 230.13 449.1 226.38 453.1 222.38C457.1 218.38 463.6 219.63 461.6 217.63C459.6 215.63 460.6 215.38 454.84 212.63C449.08 209.88 444.1 204.38 445.35 203.13C446.6 201.88 447.85 195.63 450.1 193.38C452.35 191.13 452.6 179.63 451.1 178.13C449.6 176.63 444.81 176.25 446.6 174.46C448.39 172.67 465.6 169.38 467.6 169.38C469.6 169.38 466.81 172.75 465.1 174.46C463.39 176.17 462.48 175.25 465.1 177.88C467.72 180.51 474.35 181.63 469.1 183.63C463.85 185.63 455.35 184.13 460.6 186.38C465.85 188.63 466.1 189.13 472.1 190.38C478.1 191.63 475.1 190.13 480.6 192.13C486.1 194.13 489.6 185.63 489.6 192.13C489.6 198.63 486.35 200.88 486.35 200.88C486.35 200.88 477.1 202.13 486.35 202.13H497.35C500.6 202.13 511.71 207.66 515.43 211.38Z" fill="white"/>
<path d="M598.85 227.88C598.85 233.13 590.1 234.13 596.35 235.88C602.6 237.63 605.85 236.13 605.85 238.38C605.85 240.63 597.91 238.71 595.1 241.52C592.29 244.33 587.6 244.13 589.6 246.13C591.6 248.13 602.1 251.63 602.1 252.88C602.1 254.13 602.35 250.88 602.35 257.63C602.35 264.38 598.48 263.25 602.35 267.13C606.22 271.01 611.6 278.13 611.6 270.38C611.6 262.63 614.35 264.63 610.35 254.38C606.35 244.13 603.55 239.71 605.35 241.52C607.15 243.33 611.35 238.63 615.35 245.13C619.35 251.63 618.85 257.88 618.85 260.88C618.85 263.88 621.6 266.63 625.6 268.13C629.6 269.63 628.6 269.38 632.85 269.38C637.1 269.38 644.35 268.13 644.35 265.13V257.63C644.35 257.63 651.35 260.88 646.35 255.88C641.35 250.88 634.48 247 635.35 246.13C636.22 245.26 644.85 242.88 644.85 242.88C644.85 242.88 647.85 241.88 645.35 239.38C642.85 236.88 644.35 236.13 637.85 236.13C631.35 236.13 630.1 235.63 627.6 233.13C625.1 230.63 626.14 225.13 621.75 226.88C617.36 228.63 617.6 228.13 612.85 228.13C608.1 228.13 598.85 227.88 598.85 227.88Z" fill="white"/>
<path d="M606.35 185.88C609.98 189.5 614.73 189.75 611.6 192.88C608.47 196.01 601.85 195.13 601.85 195.13C601.85 195.13 599.35 188.74 599.35 190.56C599.35 192.38 598.1 202.88 598.1 204.88C598.1 206.88 599.85 209.88 593.35 206.13C589.347 203.774 585.861 200.635 583.1 196.9C583.1 196.9 584.1 192.38 586.1 192.38C588.419 192.339 590.643 191.45 592.35 189.88C593.98 188.25 595.85 186.38 595.85 184.63C595.85 182.88 591.1 178.88 595.85 181.13C600.6 183.38 606.35 185.88 606.35 185.88Z" fill="white"/>
<path d="M575.38 185.88C577.49 187.99 581.38 189.88 579.1 192.13C576.82 194.38 574.6 193.88 570.1 192.13C565.6 190.38 566.79 187.57 564.6 189.76C562.41 191.95 563.26 196.59 560.85 194.19C558.44 191.79 553.98 192.99 556.6 190.37C559.22 187.75 560.35 185.88 563.6 185.88H575.38Z" fill="white"/>
<path d="M546.6 154.63C548.85 156.88 554.1 162.88 551.35 162.88C548.6 162.88 546.6 162.13 546.6 164.38C546.817 166.636 547.793 168.752 549.37 170.38C550.49 171.5 553.37 169.38 553.37 172.13C553.37 174.88 551.87 175.88 551.87 177.13C551.87 178.38 548.12 178.63 548.12 178.63C548.12 178.63 543.37 176.63 545.37 178.63C547.37 180.63 547.62 181.63 547.62 182.88C547.62 184.13 549.37 185.88 547.62 185.88C545.87 185.88 540.87 186.38 540.87 187.63C540.87 188.88 542.37 190.37 542.37 190.37C542.37 190.37 544.11 191.37 542.37 191.37H537.37C534.87 191.37 533.12 188.37 533.12 188.37C533.418 187.431 533.932 186.575 534.62 185.87C535.75 184.74 539.12 184.62 539.12 183.37C539.12 182.12 541.62 180.87 539.37 178.62C537.667 176.846 536.074 174.969 534.6 173C534.6 173 536.85 175.63 533.1 171.88L527.35 166.13L523.35 162.88C524.651 162.376 525.84 161.622 526.85 160.66C528.37 159.14 529.35 158.66 533.6 158.66C537.85 158.66 540.1 158.16 541.6 158.16C543.1 158.16 546.6 154.63 546.6 154.63Z" fill="white"/>
<path d="M497.85 156.13C499.1 156.13 505.85 161.38 505.85 164.88C505.85 168.38 501.23 166.25 504.35 169.38C507.47 172.51 513.19 171.88 510.6 174.46C508.01 177.04 505.6 176.63 502.85 176.63C499.901 176.443 497.132 175.146 495.1 173C493.04 170.94 492.35 166.39 490.1 166.39C487.85 166.39 485.6 165.63 484.85 164.88C484.1 164.13 484.22 162.55 486.1 160.66C487.98 158.77 488.48 155.5 489.35 154.66C490.22 153.82 496.6 154.66 496.6 154.66L497.85 156.13Z" fill="white"/>
<path d="M519.6 117.63C519.6 117.63 513.98 127.75 512.35 129.38C510.72 131.01 511.28 127.59 507.35 131.52C503.42 135.45 502.73 136.25 500.6 138.38C498.47 140.51 494.98 141 493.1 142.88C491.22 144.76 484.42 142.88 484.42 142.88C484.42 142.88 481.1 140.63 479.6 140.63C478.1 140.63 474.48 139.25 476.6 137.13C478.72 135.01 480.49 134.13 484.42 134.13C488.35 134.13 491.42 129.84 493.1 131.52C494.78 133.2 499.35 131.38 499.35 129.63C499.35 127.88 510.1 120.63 510.1 120.63C511.51 120.456 512.929 120.372 514.35 120.38C516.85 120.38 519.6 117.63 519.6 117.63Z" fill="white"/>
<path d="M540.6 98.8799C544.23 102.5 546.35 102.88 546.35 105.38C546.35 107.88 546.16 109.55 547.6 110.99C548.409 111.657 549.426 112.022 550.475 112.022C551.524 112.022 552.54 111.657 553.35 110.99C554.66 109.68 553.87 107.39 555.81 105.45C557.75 103.51 564.1 102.38 564.1 102.38C564.1 102.38 565.23 96.9999 564.1 95.8799C562.97 94.7599 556.78 90.3999 555.81 91.3799C554.84 92.3599 555.73 92.7499 552.6 95.8799C549.47 99.0099 543.85 97.6299 542.35 97.6299C541.006 97.5635 539.669 97.3963 538.35 97.1299L540.6 98.8799Z" fill="white"/>
<path d="M177.35 104.71C178.69 106.05 178.1 110.38 181.6 113.88C185.1 117.38 190.73 114 186.23 118.5C181.73 123 177.35 124.13 177.35 127.38C177.35 130.63 182.1 131.13 185.35 131.13C188.6 131.13 201.21 125.18 202.01 124.38C202.81 123.58 206.85 121.63 206.85 123.38C206.85 125.13 208.6 129.38 206.85 131.13C205.1 132.88 200.6 131.13 198.1 133.63C195.6 136.13 191.35 137.29 191.35 139.08C191.35 140.87 195.85 139.08 191.35 140.88C186.85 142.68 175.1 142.38 175.1 142.38C176.966 143.001 178.673 144.026 180.1 145.38C182.23 147.5 183.1 143.13 185.35 145.38C187.6 147.63 191.85 145.13 193.85 147.13C195.85 149.13 195.56 148.25 197.85 150.54C200.14 152.83 201.6 153.63 205.35 153.63C209.1 153.63 215.86 151.63 217.23 151.63C218.6 151.63 220.6 144.2 220.6 150.54C220.6 156.88 226.1 162.88 223.35 162.88C220.6 162.88 224.35 161.88 217.23 164.13C210.11 166.38 205.73 167.5 203.85 169.38C201.97 171.26 203.1 173.04 198.1 174.46C193.1 175.88 185.98 175.25 183.35 172.63C181.416 170.5 179.738 168.151 178.35 165.63C178.35 165.63 181.35 161.88 175.1 161.88C168.85 161.88 157.1 165.13 156.1 165.13C154.773 164.962 153.437 164.878 152.1 164.88C148.85 164.88 137.6 160.38 142.85 160.38C148.1 160.38 158.36 158.38 153.98 156.88C149.6 155.38 139.6 151.63 139.6 151.63L138.1 150.54C138.1 150.54 134.98 144.25 135.85 143.38C136.72 142.51 139.35 141.38 137.6 141.38C134.908 141.062 132.237 140.587 129.6 139.96C129.6 139.96 128.1 135.88 128.1 134.13C128.1 132.38 129.85 127.13 128.1 127.13C126.35 127.13 119.35 128.13 119.35 128.13L116.1 126.88L110.6 120.38C110.6 120.38 112.85 117.13 118.35 119.13C123.309 120.973 128.559 121.911 133.85 121.9C138.85 121.9 149.66 120.38 149.66 120.38L157.35 116.63L162.1 111V107.64L182.35 100.89L177.35 104.71Z" fill="white"/>
<path d="M193.85 68.4C193.85 69.63 196.6 74.4 196.6 78.4C196.6 82.4 194.1 83.4 191.35 86.15C188.6 88.9 185.6 89.9 186.35 90.65C187.1 91.4 190.85 94.15 184.85 94.15H173.35C171.127 94.6234 169.062 95.656 167.35 97.15C165.1 99.4 149.65 99.65 149.65 99.65C149.65 99.65 148.47 94.52 145.59 97.4C142.71 100.28 138.22 98.77 136.09 100.9C133.96 103.03 127.84 102.9 128.59 102.15C129.34 101.4 134.34 92.9 142.09 91.15C149.84 89.4 159.33 91.5 162.61 88.22C165.89 84.94 171.84 85.15 171.84 82.65C171.84 80.15 165.59 76.9 168.59 76.9C171.59 76.9 182.22 73.77 183.34 72.65C184.46 71.53 187.96 69.31 188.84 68.42C189.72 67.53 193.85 68.4 193.85 68.4Z" fill="white"/>
<path d="M249.35 47.1299C248.6 47.8799 236.85 49.1299 236.85 50.8799C236.85 52.6299 238.85 52.6299 238.85 56.3799C238.85 60.1299 244.23 64.4999 243.1 65.6299C241.97 66.7599 239.6 66.6299 239.6 68.0099C239.6 69.3899 241.35 69.6299 243.1 71.3799C244.85 73.1299 245.6 71.1299 245.6 73.8799C245.6 76.6299 245.73 76.7499 247.6 78.6299C249.47 80.5099 254.16 79.2999 256.1 81.2399L258.05 83.1799C260.67 85.8099 259.85 86.5299 259.85 88.1799C259.85 89.8299 263.85 89.8599 263.85 89.8599C263.85 89.8599 265.23 85.8599 265.23 91.2299C265.23 96.5999 264.35 94.3599 263.1 98.6099C261.85 102.86 262.6 103.86 262.6 107.86C262.6 111.86 268.85 110.11 260.6 113.86C252.35 117.61 245.6 118.11 245.6 120.86C245.6 123.61 244.6 124.61 244.6 127.36C244.6 130.11 247.35 131.61 247.35 131.61L252.35 133.11C252.35 133.11 251.73 137.73 256.35 133.11C260.97 128.49 262.6 125.36 263.85 124.11C265.1 122.86 268.35 121.88 270.6 121.88C272.85 121.88 275.1 125.11 275.1 118.88C275.1 112.65 274.1 110.88 275.1 109.88C276.1 108.88 275.35 109.38 280.48 106.38C285.61 103.38 287.85 99.8799 287.85 98.6299C287.85 97.3799 284.35 95.3799 284.35 92.3799C284.35 89.3799 283.6 87.1299 282.35 87.1299C281.1 87.1299 277.85 83.8799 274.1 83.8799C270.35 83.8799 269.6 84.6299 268.85 83.8799C268.1 83.1299 264.1 80.6299 264.1 78.8799C264.1 77.1299 268.73 76.7499 265.85 73.8799C262.97 71.0099 255.35 67.9999 255.35 67.9999C255.35 67.9999 252.35 67.3699 252.35 66.3699C252.35 65.3699 254.1 55.3699 254.1 55.3699L262.35 54.1199C262.35 54.1199 266.6 53.6199 269.35 53.6199C272.1 53.6199 283.35 48.6199 283.35 48.6199C281.85 48.6199 273.6 43.8999 270.85 43.8999C268.1 43.8999 263.35 41.3999 260.85 43.8999C258.35 46.3999 254.1 46.8999 252.85 46.8999C251.6 46.8999 249.35 47.1299 249.35 47.1299Z" fill="white"/>
<path d="M188.35 37.38C188.35 37.38 197.85 37.13 197.85 39.38C197.85 41.63 197.41 42.77 202.01 42.77C206.61 42.77 208.2 38.91 209.35 40.07C210.5 41.23 213 40 214.6 41.63C216.2 43.26 220.6 42.77 220.6 42.77L224.12 40.1C224.12 40.1 231.64 42.38 224.12 44.88C216.6 47.38 213.6 48.6 213.6 48.6C216.37 51.37 217.6 52.6 220.1 55.13C222.6 57.66 217.45 57.13 217.45 59.13C217.45 61.13 214.38 61.05 217.45 62.63C220.52 64.21 230.35 62.13 222.85 65.88C215.35 69.63 213.35 70.13 211.35 70.13C209.35 70.13 204.35 63.63 204.35 63.63C204.35 63.63 203.91 66 202 66C200.09 66 198.59 65.9 196.59 65.9C194.59 65.9 192.09 63.65 193.84 63.65C195.59 63.65 198.09 61.4 198.09 61.4L194.09 52.65C192.6 53.3447 190.983 53.726 189.34 53.77C186.84 53.77 181.34 51.65 180.09 50.4C178.84 49.15 176.09 49.65 174.09 49.65C172.09 49.65 170.36 50.9 167.35 50.9C164.34 50.9 157.59 48.62 157.59 48.62C157.59 48.62 161.84 45.62 165.84 45.62C169.84 45.62 179.15 43.7 180.09 42.76C181.03 41.82 186.59 37.36 186.59 37.36L188.35 37.38Z" fill="white"/>
</svg>
