<svg xmlns="http://www.w3.org/2000/svg" viewBox="0 0 648.15 313.66"><defs><style>.cls-1{fill:#fff;}</style></defs><title>safe-screeningAsset 4</title><g id="Layer_2" data-name="Layer 2"><g id="earth"><g id="land"><path class="cls-1" d="M330.1,158.88c-9.5,0-13.5-10.5-17-3s-8.75,12.75-14.75,18.75-9.25,12.75.75,12.75,15-15.5,20-10.5-7.5,2,1,10.5,5,16.5,15.5,6,6-14,18.5-7.5,13.25,14.25,21,6.5,2-9.5,14-3.5,8,14,15.25,2.75,23-1,10-14-8.75-13.75-21.25-9.75-19,7-19-2.5-3.4-19.8-11-12.2-13.5,12.2-20.5,12.2S330.1,158.88,330.1,158.88Z"/><path class="cls-1" d="M228.6,183.88c-8.5,0-9.75-4.75-14.5,0s-11,4.5-11,7.5-3.5,5,2,5,7.06-1.15,10.21,2-2.76,9.05,3.14,3.15.65-6.09,5.9-8.62,11.75,1,6.75-4S228.6,183.88,228.6,183.88Z"/><path class="cls-1" d="M248.6,240.38s-19.8-17-31.15-17-15.85,5-20.85,0,5-3.5-9.25-.75-16.75,6.75-20.75,2.75-5.5-5.29-9-5.29-6,10.14,0,10.14,12,5.15,16,5.15,7.25.25,9,2,.5,4.25,5,3,.5-3,7.5-5.5,10-1.5,12,.5,4.7-5,10.35-5,13.09.63,15.45,3,9.7,10.5,9.7,10.5-3,1,.5,4.5,1.75,1.25,5.5,5l9.5,9.5c3.75,3.75,11.5,0,15.5,4s10,1,4-5-1.5-10-1.5-10,5.81-.23,4-2,3.21-1.25-3-7.5a22.4,22.4,0,0,0-14.5-6.25s2.38-2.5,2.38,2.37,5.19,6.69,0,8.38-7.38,7.5-11.88.5Z"/><path class="cls-1" d="M148.1,246.88c0,2,3.5,11,0,14.5l-7.32,7.32c-2.43,2.43-8.18,4.68-10.68,4.68s-5.25,3.25-8.5,0a35.89,35.89,0,0,1-5.5-7.5s0-2-3-2-3.25,4.25-7.5,0l-4.25-4.25,6.25-3.25,8.5-.5s4.5-.5,6.5,1.5-1.55,3.47,3.48,3.47,3-2.74,7.76-2.74,6.51-1,8.76-3.23S148.1,246.88,148.1,246.88Z"/><path class="cls-1" d="M116.1,244.4s-14-5-18-5-1.5-3-10.5-3-10.5-5-15.5,0-6.5,8-9,10.5-10,0-10,0A47.46,47.46,0,0,1,41.6,248c-7.5,0-8.4-3.82-11.5-6.92s-2.11-2.52-6.5-6.91-10.35-15.71-12-14.07-4.25,3,0,7.29,9.46,2.12,5,6.58.5,6.44-3.5,10.44-.21,10.07-3.81,6.48-5,5,0,5,11.81-4,11.81,0,1.52,7.46,4,5,3-5.74,5.74-5.74,1.26-4.23,7.26,1.77,8.5,6,8.5,6,1.27,2.21,5.5-2,3.95-4,9-4,10.77,4.25,13.52,1.5,2.75-11.25,7-7,12.25.75,7,6-9.25,4.75-13,8.5-6.5,6.5-3.75,6.5,6.75,3,9.75,0a14,14,0,0,1,6.5-3.68s1.5,1.35,1.5,5-3.5,3.67,0,3.67,6.06,1.39,6.06-2.56-3.06-8.94-3.06-8.94-4.48,0,.5-5,6-9,6-9,7.5-.5,10.5-.5,9-2.61,9-2.61,4,4.4,4,0S116.1,244.4,116.1,244.4Z"/><path class="cls-1" d="M44.6,138.88s.5,2,9-6.5,7.45-10.5,10.73-10.5,1.77-2.5,7.77-2.5h20c7,0,14.75,3.25,9.25-2.25s-5.25-.75-9.75-5.25-6.5-4.5-14.5-4.5-16-6-16,0,.25,5.75-3.5,9.5-10,0-10,5-3,2.48-3,8Z"/><path class="cls-1" d="M33.6,113.88c5,0,11-2,11-7s-4-11,0-11,8.5.5,8.5-3,1-4.5,3.25-6.75,8-1.75,8-1.75-.73,5,3.27,5,.12,3.88,6.31-2.31,4.19-9.19,7.69-7.69,7.81-2.07,9.5-.38,10.25,1.69,10.25,1.69l5.25-2.16s-4.75,5.6-7.5,8.35-11,5-5.5,5,5,1,7.75,1,2.25-3,5.25-3a65,65,0,0,0,8.5-1h4c2,0,6.41-4,6.41-4s6.09-6.35,11.59-6.35a67.05,67.05,0,0,0,12.56-1.65s-11.56-2.5-6.56-2.5,9.5-2.5,13.5-2.5,7.5-2.5,9-4l5-5h7l2.5-3.5H168.6c-7.5,0-9.18,5.44-14.62,0s-7.38-7.5-12.88-7.5-6.69,2-15.59,2-16.53-.63-18.66,1.5.25,3.5-5.5,3.5-7.25-2.5-7.25-4.5-3.5-7-5-5.5-3,3.5-3,6,2.5,5,4.5,7,2,2,6,2,6.62-2.5,6.62,1.5,2.88,6-6.62,6-10.5-.5-18-.5-15,2-18-1,3.5-5.5-4-5.5-12-3.5-14.5-1-14.5,3-19,7.5-5,6.72-5,10.36-7,6.64-3.5,5.14,13.07-1.21,17-5.14.87-6.18,6.19-6.18,10.63,2.36,6.81,6.18-12-.36-12,4.64,2.5,5,4,6.5-1.5-.5-1.5,4.5-3,4.67-3,7.83A52.76,52.76,0,0,0,33.6,113.88Z"/><path class="cls-1" d="M465.1,51.38c-1.24,0-2.6-.07-4.05-.16-7.86-.5-18-1.78-22.45,2.66-5.25,5.25-6.5,7.5-8.5,7.5s-8,4.5-10.77,4.5-2.73-1-6.73,3-8.5,8.5-12,5l-5.25-5.25s.49-11.47-5.25-5.73-4.5,6-4.5,12.24-4.43,3-7.5,6.1-8,3.14-5.5,5.64S375,88.24,375,84.31s4.06,4.57,4.06-10.43,4-19,4-19,4.39-6.33,6.5-4.22,8,.22,11.5,3.72-7,9,0,9,7.75.75,11.5-3,3.46-6.5,6.73-6.5,3.77-3.65,8.77-3.65a57.7,57.7,0,0,0,11.5-1.63h8C453.1,48.6,465.1,51.38,465.1,51.38Z"/><path class="cls-1" d="M475.6,55.88s6.24,6.29,0,12.52-4.5,12.84-10.5,12.84-21,11.14-24,14.14-7,9.33-12,9.33-6.8-3.79-10.59,0a22.72,22.72,0,0,1-9.41,5.17h17.5s2.5,2.5,5,0,4.34-1,8.5-5.17,3-9.33,8-9.33,2.5-1,8-1,8.59-2.76,12-6.18a15.53,15.53,0,0,1,10.28-4.77c2.72,0,4.92.67,4.92-2.19s-5.45-4.61-3.2-6.86-1.5-6,6-6h13.5s2-5.52,4-7.52,5.5-2,8.5-2,5.5.5,5.5,2.5-8.5,4.05-8.5,7,7,2,8.5,3.48-.5-3.5,4.5,1.5,4,10.05,4,10.05,1.73,6.28,4,0,12-15,12-15h5.5c3,0,6.5,0,6.5-3s-3-7,0-7,6,1.5,9,4.5,1.55,5.52,5.53,5.52,0-19.8,0-19.8a11.78,11.78,0,0,1-6-3.22c-2.75-2.75-3-5.5,1.5-5.5h10.5c6,0,18,5.5,23.5,0s4.5-7.5,10-7.5,21,11.5,9.5,0-31-18.5-36.5-18.5-7.5-6-14.5-6-30.75-6.25-37,0-21,21-32.5,18.5-18.5-5.5-21-5.5-13.5-1-18,3.5-8.25,7.25-4.5,11S465.47,45,469.1,48.6A92.19,92.19,0,0,1,475.6,55.88Z"/><path class="cls-1" d="M325,18.38c7.3,7.3,20.85,6.75,24.1,3.5s16.64-5.5,22.82-5.5,14.18-4.72,16.68,3.89-10,12.11,0,12.11,11,5.5,16.5,0,11,1.5,11-10-.75-8.75-4-12-14-10-16.5-10H360.1c-8.5,0-32.61-.17-37.5,4.72L314.72,13c-5.5,5.5,8.18,11.89,10.28,11.89s2.1-7.28,2.1-7.28Z"/><path class="cls-1" d="M140.94,13a25.46,25.46,0,0,1,4.24,2c4.17,2.63-2.74,2.63,7.76,2.63,12.66,0,12-8.22,20-8.22s12.66-7.89,22-4.28,16.58,5.78,22.29,5.78H247.6c4.67,0,10.25,2.41,12.67,0s8-2.83,12-2.83,5.33,6,5.33,6,6-.89,6,3.55-21.33,3.78-21.33,3.78a19.41,19.41,0,0,1,18.21,5.33c8.23,8.23,12.07,11.17,15.12,8.11s4.67-2.77,10.67-2.77a15.22,15.22,0,0,1,10,4l-8-15.92s-2-6-2-8.7,1.33-6.28-5.33-6.28S290.27.38,285.6.38H246.27c-8.67,0-19.33,4.72-26,4.72S207.74.38,202,.38H169.6c-4,0-31.33,4.72-31.33,4.72Z"/><path class="cls-1" d="M150.63,22.68c6,0,14.47-.13,11.31,3s-14.34,7-17.34,7-11.33-2.66-15.66-2.66-13,2.66-15.67,2.66H100.94c-3.34,0-4-1.66-6-1.66s-1.67,3.66-6.67,1.66-5-4.71-5-4.71H70.94s3,1.95-4,0-7.67-3.62-7.67-3.62-6.17-2.5-8.33-.33-8.34,2-8.34,2l2-5.67s-1.94-5.84-5-2.78-18.5.53-18.5,1.78,13.25,2.5-2.75,2.5S0,22.38,0,22.38V8.88H11.85c1.75,0,9,3,12.5,3s7.25-3,10-3,1.5-2.5,9.25,0,8.75,3.25,11.25,3.25,6.75,0,7.75-1,7,.5,10.25.5a47.17,47.17,0,0,1,7.25.75s0-.5,2.5-.5,3.25-.75,4.75-.75,2,.25,5.5.25,5.25-.25,6.5-.25,1-.75,3.87-.75h8.13l7.5,2.75s8.25,3.23,5.75,3.23-8.75,1.24-11.25,1.24-3.48-1-1.73.76,5.48,1,8,1h25.5a9.93,9.93,0,0,1,4.5,1.16Z"/><path class="cls-1" d="M96.86,6.38c-10.51,3.25-20.39,1.39-23,1.39S73.1,4.93,68.1,4.93s-17,1.69-19.5,1.69H29.1c-1.25,0-.75-.21-4.25,1.15S15.6,8.3,14.6,8.3s-4-1.56-8.5-1.56H0V.38H138.27s-5.67,4.08-4.42,4.08,3.84,1.25,1.25,1.92S107.37,3.13,96.86,6.38Z"/><path class="cls-1" d="M598.1,9.05c2.5,1,3.34,1.16,7.84,1.16s1.66-10.5,7-1.16,7.45,9.33,8.81,9.33,1.69.83,5.19-2.67,5.33-3.89,7.83-3.89,4.67.78,7,0a4,4,0,0,0,2.83-4.11c0-1.5,2-3.33-1.16-3.33h-6c-4,0-1.17.17-8-1.33s-7.34-4-11-2.67-3,1-9,2.17-12.17-1.84-12.17.5a10.81,10.81,0,0,0,1.17,4.5Z"/><path class="cls-1" d="M604.1,58.05s4.74,8.12,2.5,10.35-1.25-.77-6.5,4.48l-8.5,8.5c-3.25,3.25-14,4.5-14,4.5s-5,8.5,0,8.5h19.67s3.08-5.25,8.33,0,9,8,9,3,6.65-4,6.65-13.5-.16-12,3.35-15.48,11.25-1.27,4.5-8-8.5-11.5-13-7S607.6,58.05,604.1,58.05Z"/><path class="cls-1" d="M638.1,102.38c0,7-6,13.5-10,17.5s-7.5,4-12.5,4-24,.5-24,4,4.25,7.25-3.5,11-19.5,1.5-19.5,6.5-2.5,6,0,8.5l6.78,6.78s4.72-1.28,10.22-6.78,14.39-3.34,17.2-3.34,5.8.34,5.8-5.16,5-9,8-9a91.6,91.6,0,0,0,9.5-1s.77-2.59,5.68-7.5,13.45-8.5,13.45-8.5,5.11-3.27,0-8.39A47.28,47.28,0,0,1,638.1,102.38Z"/><path class="cls-1" d="M515.43,211.38c3.71,3.71,8.17,2,11.17,5s-.62,2.37,1.5,4.5,7.25,2.5,11.5,2.5,9.63-1.38,11,0l6.25,6.25c2.88,2.87,5.5,2.87,5.5,2.87a2.36,2.36,0,0,1,3.5,0c1.82,1.82-2.75,7.13-7.25,5.63s-6-4-9.75-4-4.5,4.75-11.5,1.5a81.31,81.31,0,0,1-9.25-4.75s-2.5.25-7.5-1.75-2.89-4.47-5.17-6.75-5.33-4.24-9.58-2.74-9.75,5-13.25,1.49a18.4,18.4,0,0,0-8.25-4.5,51.78,51.78,0,0,1-6.75.25c-5.25,0-9,.76-9,2.76s-1.5,1.24,2.25,5,7,3.75,7,6.5-3.87,1.62-1.37,4.12,4.25,1.5,7.37,4.63,3.13,2.25,3.13,5.5.75,4.56-1.31,4.56-4.78-1.22-3.57,0,5.13,1.56,7,3.44,4.75,1.75,10,1.75,7.38,1.37,8.75,2.75,2,1.75,2,3.5-4.25.75-4.25,2.5,3.5,3,5.5,5l4.33,4.32c1.55,1.55,1.05,5.05,3.67,7.68s5.63.62,7.5,2.5,2.75,2.5,5.25,5,6,3,10.25,3S545.35,293,548,293a8.09,8.09,0,0,1,5.87,2.63,8.33,8.33,0,0,0,4,1.75s-1.75,3-7,4.75-2.75,2-9.5,3.5-8.25,4-13.75,4-.6,1.25-12.17,0a217.86,217.86,0,0,0-23.08-1.5c-4.25,0-8,.5-12.5.5s-11.54-3-11.54-3a8.14,8.14,0,0,0-4.46-1.5c-2.5,0,8.75-3.5-9.25.75s-21.75,5.3-23.5,5.3-7-2.55-8-3.55,1.21-3.25-3.77-3.25-10.23-1.25-10.23.75,5.63,5.62,3.75,7.5-26.12,2.62-27.25,1.5a13.28,13.28,0,0,0-8.5-3c-4,0-10.75-1.5-16.25-1.5s-8.37,1.62-10.5-.5-12.5-5-3-6.75,3.25-4.75,19-4.75,13,.25,25,.25h28c2.52,0,15-1.5,15-6.75s-.87-6.13-.87-6.13-10.92-3.87-14.15-3.87-15-2-2-3.5,13-1.25,16.5-1.25,16.5-7.5-4-7.5-24.5,1.75-32,0-23-7.72-23-10.61-4-5.89-1.25-5.89,10.5-1.25,17.5.25a150.28,150.28,0,0,1,20.75,5.64c6.25,2.36,13.75,5.11,20,5.11s25.25-5.11,25.25-5.11,2.25-4.89-.5-7.64-15.75-5.5-11.25-6.75,21.25-3.75,21.25-3.75,3-3.75-5.25-5.75-9.5-.75-9.5-2-2.75-5,1.25-9,10.5-2.75,8.5-4.75-1-2.25-6.76-5-10.74-8.25-9.49-9.5,2.5-7.5,4.75-9.75,2.5-13.75,1-15.25-6.29-1.88-4.5-3.67,19-5.08,21-5.08-.79,3.37-2.5,5.08-2.62.79,0,3.42,9.25,3.75,4,5.75-13.75.5-8.5,2.75,5.5,2.75,11.5,4,3-.25,8.5,1.75,9-6.5,9,0-3.25,8.75-3.25,8.75-9.25,1.25,0,1.25h11C500.6,202.13,511.71,207.66,515.43,211.38Z"/><path class="cls-1" d="M598.85,227.88c0,5.25-8.75,6.25-2.5,8s9.5.25,9.5,2.5-7.94.33-10.75,3.14-7.5,2.61-5.5,4.61,12.5,5.5,12.5,6.75.25-2,.25,4.75-3.87,5.62,0,9.5,9.25,11,9.25,3.25,2.75-5.75-1.25-16-6.8-14.67-5-12.86,6-2.89,10,3.61,3.5,12.75,3.5,15.75,2.75,5.75,6.75,7.25,3,1.25,7.25,1.25,11.5-1.25,11.5-4.25v-7.5s7,3.25,2-1.75-11.87-8.88-11-9.75,9.5-3.25,9.5-3.25,3-1,.5-3.5-1-3.25-7.5-3.25-7.75-.5-10.25-3-1.46-8-5.85-6.25-4.15,1.25-8.9,1.25S598.85,227.88,598.85,227.88Z"/><path class="cls-1" d="M606.35,185.88c3.63,3.62,8.38,3.87,5.25,7s-9.75,2.25-9.75,2.25-2.5-6.39-2.5-4.57-1.25,12.32-1.25,14.32,1.75,5-4.75,1.25a34.52,34.52,0,0,1-10.25-9.23s1-4.52,3-4.52a9.48,9.48,0,0,0,6.25-2.5c1.63-1.63,3.5-3.5,3.5-5.25s-4.75-5.75,0-3.5S606.35,185.88,606.35,185.88Z"/><path class="cls-1" d="M575.38,185.88c2.11,2.11,6,4,3.72,6.25s-4.5,1.75-9,0-3.31-4.56-5.5-2.37-1.34,6.83-3.75,4.43-6.87-1.2-4.25-3.82,3.75-4.49,7-4.49h11.78Z"/><path class="cls-1" d="M546.6,154.63c2.25,2.25,7.5,8.25,4.75,8.25s-4.75-.75-4.75,1.5a10,10,0,0,0,2.77,6c1.12,1.12,4-1,4,1.75s-1.5,3.75-1.5,5-3.75,1.5-3.75,1.5-4.75-2-2.75,0,2.25,3,2.25,4.25,1.75,3,0,3-6.75.5-6.75,1.75,1.5,2.74,1.5,2.74,1.74,1,0,1h-5c-2.5,0-4.25-3-4.25-3a6.32,6.32,0,0,1,1.5-2.5c1.13-1.13,4.5-1.25,4.5-2.5s2.5-2.5.25-4.75A60.34,60.34,0,0,1,534.6,173s2.25,2.63-1.5-1.12l-5.75-5.75-4-3.25a10.65,10.65,0,0,0,3.5-2.22c1.52-1.52,2.5-2,6.75-2s6.5-.5,8-.5S546.6,154.63,546.6,154.63Z"/><path class="cls-1" d="M497.85,156.13c1.25,0,8,5.25,8,8.75s-4.62,1.37-1.5,4.5,8.84,2.5,6.25,5.08-5,2.17-7.75,2.17A11.69,11.69,0,0,1,495.1,173c-2.06-2.06-2.75-6.61-5-6.61s-4.5-.76-5.25-1.51-.63-2.33,1.25-4.22,2.38-5.16,3.25-6,7.25,0,7.25,0Z"/><path class="cls-1" d="M519.6,117.63s-5.62,10.12-7.25,11.75-1.07-1.79-5,2.14-4.62,4.73-6.75,6.86-5.62,2.62-7.5,4.5-8.68,0-8.68,0-3.32-2.25-4.82-2.25-5.12-1.38-3-3.5,3.89-3,7.82-3,7-4.29,8.68-2.61,6.25-.14,6.25-1.89,10.75-9,10.75-9a33.24,33.24,0,0,1,4.25-.25C516.85,120.38,519.6,117.63,519.6,117.63Z"/><path class="cls-1" d="M540.6,98.88c3.63,3.62,5.75,4,5.75,6.5s-.19,4.17,1.25,5.61a4.52,4.52,0,0,0,5.75,0c1.31-1.31.52-3.6,2.46-5.54s8.29-3.07,8.29-3.07,1.13-5.38,0-6.5-7.32-5.48-8.29-4.5-.08,1.37-3.21,4.5-8.75,1.75-10.25,1.75a26.92,26.92,0,0,1-4-.5Z"/><path class="cls-1" d="M177.35,104.71c1.34,1.34.75,5.67,4.25,9.17s9.13.12,4.63,4.62-8.88,5.63-8.88,8.88,4.75,3.75,8,3.75,15.86-5.95,16.66-6.75,4.84-2.75,4.84-1,1.75,6,0,7.75-6.25,0-8.75,2.5-6.75,3.66-6.75,5.45,4.5,0,0,1.8-16.25,1.5-16.25,1.5a13.42,13.42,0,0,1,5,3c2.13,2.12,3-2.25,5.25,0s6.5-.25,8.5,1.75,1.71,1.12,4,3.41,3.75,3.09,7.5,3.09,10.51-2,11.88-2,3.37-7.43,3.37-1.09,5.5,12.34,2.75,12.34,1-1-6.12,1.25-11.5,3.37-13.38,5.25-.75,3.66-5.75,5.08-12.12.79-14.75-1.83a36.85,36.85,0,0,1-5-7s3-3.75-3.25-3.75-18,3.25-19,3.25a31.45,31.45,0,0,0-4-.25c-3.25,0-14.5-4.5-9.25-4.5s15.51-2,11.13-3.5-14.38-5.25-14.38-5.25l-1.5-1.09s-3.12-6.29-2.25-7.16,3.5-2,1.75-2a70.19,70.19,0,0,1-8-1.42s-1.5-4.08-1.5-5.83,1.75-7,0-7-8.75,1-8.75,1l-3.25-1.25-5.5-6.5s2.25-3.25,7.75-1.25a44.22,44.22,0,0,0,15.5,2.77c5,0,15.81-1.52,15.81-1.52l7.69-3.75L162.1,111v-3.36l20.25-6.75Z"/><path class="cls-1" d="M193.85,68.4c0,1.23,2.75,6,2.75,10s-2.5,5-5.25,7.75-5.75,3.75-5,4.5,4.5,3.5-1.5,3.5h-11.5a13.36,13.36,0,0,0-6,3c-2.25,2.25-17.7,2.5-17.7,2.5s-1.18-5.13-4.06-2.25-7.37,1.37-9.5,3.5-8.25,2-7.5,1.25,5.75-9.25,13.5-11,17.24.35,20.52-2.93,9.23-3.07,9.23-5.57-6.25-5.75-3.25-5.75,13.63-3.13,14.75-4.25,4.62-3.34,5.5-4.23S193.85,68.4,193.85,68.4Z"/><path class="cls-1" d="M249.35,47.13c-.75.75-12.5,2-12.5,3.75s2,1.75,2,5.5,5.38,8.12,4.25,9.25-3.5,1-3.5,2.38,1.75,1.62,3.5,3.37,2.5-.25,2.5,2.5.13,2.87,2,4.75,6.56.67,8.5,2.61l1.95,1.94c2.62,2.63,1.8,3.35,1.8,5s4,1.68,4,1.68,1.38-4,1.38,1.37-.88,3.13-2.13,7.38-.5,5.25-.5,9.25,6.25,2.25-2,6-15,4.25-15,7-1,3.75-1,6.5,2.75,4.25,2.75,4.25l5,1.5s-.62,4.62,4,0,6.25-7.75,7.5-9,4.5-2.23,6.75-2.23,4.5,3.23,4.5-3-1-8,0-9,.25-.5,5.38-3.5,7.37-6.5,7.37-7.75-3.5-3.25-3.5-6.25-.75-5.25-2-5.25-4.5-3.25-8.25-3.25-4.5.75-5.25,0-4.75-3.25-4.75-5,4.63-2.13,1.75-5S255.35,68,255.35,68s-3-.63-3-1.63,1.75-11,1.75-11l8.25-1.25s4.25-.5,7-.5,14-5,14-5c-1.5,0-9.75-4.72-12.5-4.72s-7.5-2.5-10,0-6.75,3-8,3S249.35,47.13,249.35,47.13Z"/><path class="cls-1" d="M188.35,37.38s9.5-.25,9.5,2-.44,3.39,4.16,3.39,6.19-3.86,7.34-2.7S213,40,214.6,41.63s6,1.14,6,1.14l3.52-2.67s7.52,2.28,0,4.78S213.6,48.6,213.6,48.6c2.77,2.77,4,4,6.5,6.53s-2.65,2-2.65,4-3.07,1.92,0,3.5,12.9-.5,5.4,3.25-9.5,4.25-11.5,4.25-7-6.5-7-6.5S203.91,66,202,66s-3.41-.1-5.41-.1-4.5-2.25-2.75-2.25,4.25-2.25,4.25-2.25l-4-8.75a12,12,0,0,1-4.75,1.12c-2.5,0-8-2.12-9.25-3.37s-4-.75-6-.75-3.73,1.25-6.74,1.25-9.76-2.28-9.76-2.28,4.25-3,8.25-3,13.31-1.92,14.25-2.86,6.5-5.4,6.5-5.4Z"/></g></g></g></svg>