<svg width="1364" height="682" viewBox="0 0 1364 682" fill="none" xmlns="http://www.w3.org/2000/svg">
<path d="M1364 0H0V682H1364V0Z" fill="#29ABE2"/>
<path d="M756.199 209.17L749.853 215.78L753.026 218.953C753.026 218.953 749.853 222.655 747.936 224.594C746.702 226.253 746.114 228.306 746.283 230.367C746.283 230.367 737.734 235.875 737.734 245.24C737.734 254.604 734.165 259.011 734.165 259.011C734.165 259.011 726.167 270.315 726.167 273.884C726.167 277.454 728.656 289.859 731.962 293.164C735.267 296.469 731.962 302.815 731.962 305.569C732.483 309.526 731.543 313.537 729.317 316.851C727.49 319.975 725.835 323.197 724.36 326.502C724.36 326.502 714.158 334.478 716.362 336.681C718.565 338.885 719.116 348.536 719.116 348.536C719.116 348.536 720.151 355.146 716.053 356.798C711.955 358.451 704.243 356.798 704.243 356.798C704.243 356.798 701.775 365.612 695.43 365.612C689.084 365.612 673.947 358.165 673.947 358.165C670.679 359.729 667.103 360.541 663.481 360.541C659.858 360.541 656.282 359.729 653.015 358.165C653.015 358.165 640.081 363.122 634.837 368.366C629.593 373.611 629.615 377.18 629.615 377.18L619.7 387.095C618.598 388.197 620.25 393.706 616.945 397.011C618.582 399.343 619.679 402.01 620.155 404.819C620.632 407.629 620.476 410.509 619.7 413.25C619.7 413.25 621.616 419.133 618.047 420.962C614.478 422.791 625.847 434.182 625.847 434.182L626.861 439.25L630.893 442.093L632.545 446.499L638.693 447.976C640.632 449.085 642.241 450.69 643.356 452.625C644.471 454.561 645.052 456.759 645.038 458.993C645.038 466.837 656.738 469.723 656.738 469.723L660.726 477.435L664.164 474.262H675.181L686.616 479.771L700.519 480.74L722.157 482.261L724.999 466.661L739.497 463.355L743.089 459.764L755.097 455.996L758.402 459.301V463.532L766.665 466.11L792.378 456.922L801.192 460.601L804.32 457.472L819.193 425.347H822.124L824.327 411.024L830.563 404.767L832.413 399.258L845.634 386.038L851.495 380.177L875.379 384.936C875.379 384.936 872.801 355.939 849.291 345.649C825.781 335.359 829.835 317.005 829.835 317.005C829.835 317.005 841.954 291.291 837.173 282.477C832.391 273.664 814.412 267.054 814.412 263.021C814.412 258.989 821.749 252.379 816.241 246.87C810.732 241.362 800.09 224.087 789.8 217.124C779.51 210.161 756.199 209.17 756.199 209.17Z" fill="#009245"/>
<path d="M436.423 132.05C436.423 132.05 413.287 142.517 424.855 154.085C436.423 165.653 436.423 160.144 436.423 160.144C436.423 160.144 426.508 159.593 426.508 164C426.508 168.407 436.423 172.814 436.423 172.814C436.423 172.814 439.728 181.076 436.423 184.382C433.118 187.687 444.685 179.424 444.685 184.382C444.73 187.472 445.548 190.502 447.065 193.195C447.065 193.195 465.618 191.543 465.618 199.805C465.527 202.03 466.315 204.201 467.812 205.85C469.308 207.499 471.393 208.494 473.616 208.619C473.616 208.619 481.878 211.175 483.795 218.799C485.712 226.423 490.406 225.409 490.406 225.409L498.205 234.223C498.205 234.223 496.553 241.935 498.205 243.587C499.858 245.24 504 250.021 510.61 250.021C517.221 250.021 534.429 257.513 534.429 279.128C535.384 285.32 537.333 291.318 540.202 296.888C540.202 296.888 552.739 306.384 549.853 314.647C546.966 322.91 550.271 321.808 542.956 321.808C535.641 321.808 538.219 329.19 532.358 330.071C526.497 330.952 519.424 329.388 516.67 332.142C513.916 334.897 502.348 339.59 500.96 339.59C499.572 339.59 492.565 340.956 492.565 343.446C492.565 345.936 494.283 346.949 489.678 350.188C487.96 351.907 487.056 357.217 487.96 357.217C488.863 357.217 477.141 363.122 477.141 363.122L465.573 363.96C463.03 365.589 460.866 367.746 459.228 370.283C457.443 373.743 452.485 373.743 452.485 373.743C452.497 374.977 452.11 376.182 451.384 377.18C450.282 378.282 446.646 378.48 444.223 380.904C441.799 383.328 436.379 379.648 436.379 379.648C435.496 379.654 434.625 379.841 433.818 380.197C433.01 380.554 432.285 381.071 431.686 381.719C429.482 383.922 423.158 381.719 423.158 381.719C423.158 381.719 423.555 384.275 420.603 384.275C420.22 384.254 419.838 384.311 419.479 384.444C419.12 384.577 418.792 384.781 418.515 385.046C418.239 385.31 418.019 385.628 417.87 385.981C417.721 386.333 417.646 386.713 417.65 387.095H415.314C415.314 387.095 417.364 384.892 415.314 384.055C413.944 383.549 412.5 383.273 411.04 383.239C411.04 383.239 409.652 383.372 411.04 384.76C412.428 386.148 412.891 387.294 412.406 387.778C411.921 388.263 410.489 387.36 407.184 385.707C404.516 384.628 401.667 384.067 398.789 384.055L395.418 380.683V377.312L392.73 376.343L390.24 373.875C390.24 373.875 388.72 377.18 381.977 377.18C375.235 377.18 374.684 374.426 374.684 374.426C372.253 374.68 369.959 375.674 368.111 377.274C366.263 378.874 364.95 381.002 364.35 383.372C362.433 391.634 366.554 395.777 366.554 395.777C366.569 396.504 366.437 397.227 366.165 397.902C365.893 398.578 365.488 399.191 364.974 399.705C364.459 400.22 363.846 400.625 363.171 400.897C362.496 401.168 361.773 401.3 361.045 401.285C355.272 401.836 343.969 400.029 345.203 401.285C346.223 402.236 346.995 403.421 347.453 404.739C347.91 406.056 348.037 407.465 347.825 408.843C347.142 412.435 353.752 419.045 353.752 419.045L353.069 422.769L339.981 421.381C339.981 421.381 339.298 413.955 337.359 413.25C335.42 412.545 324.007 410.231 324.007 410.231L322.156 412.082H319.181C319.181 412.082 315.678 418.009 315.193 418.494C314.708 418.979 312.02 424.972 312.02 424.972V436.54L314.224 437.355L312.857 443.415C313.014 444.804 313.637 446.1 314.626 447.089C315.615 448.077 316.91 448.701 318.3 448.857C323.456 449.76 322.486 453.264 322.486 453.264H329.779L331.983 452.581L333.239 453.815L337.645 451.193H345.203V455.467H355.955L359.944 452.845L362.984 454.498L368.074 449.408V446.103C368.074 446.103 374.001 434.248 376.601 435.504C379.201 436.76 376.601 449.121 376.601 449.121C376.601 449.121 371.445 457.45 375.499 461.527C379.554 465.603 391.474 468.952 393.832 473.227C396.189 477.501 398.084 488.937 398.084 488.937C398.084 488.937 401.477 489.62 401.477 492.308C401.477 494.996 410.291 496.363 410.291 496.363C410.291 496.363 417.033 497.046 417.716 499.536C418.399 502.025 414.543 501.056 414.543 501.056C414.543 501.056 413.177 506.146 422.96 509.451C432.743 512.756 434.241 512.756 434.241 512.756L431.091 508.217C431.091 508.217 430.121 504.78 433.492 505.793C435.672 506.529 437.665 507.732 439.331 509.319L448.431 511.103L455.857 515.378C455.857 515.378 453.102 514.541 453.102 516.326V519.917L447.682 514.475L446.228 515.929L447.682 517.361C447.682 517.361 443.606 515.158 441.953 516.744C440.784 517.81 439.368 518.567 437.833 518.948L436.863 519.917V522.209L435.96 523.112C435.96 523.112 439.882 523.861 439.882 525.514C439.882 527.166 449.401 527.166 449.401 527.166L453.102 530.89C453.102 530.89 462.753 536.663 465.926 535.297C469.099 533.931 460.131 527.585 460.131 527.585C460.131 527.585 450.502 518.904 457.928 520.137C465.353 521.371 480.336 517.515 480.336 517.515C480.336 517.515 489.7 531 469.738 531L466.829 530.031L472.624 535.826H468.218L471.324 538.91L470.685 544.221L465.595 545.322V546.424C465.595 546.424 451.957 550.963 450.458 554.973C448.96 558.984 437.238 570.596 437.238 570.596C437.238 570.596 423.665 552.065 418.575 572.182C418.575 572.182 411.547 570.662 403.284 577.404C398.348 576.254 393.215 576.254 388.279 577.404C381.669 579.475 388.698 568.04 388.698 568.04L384.004 563.633L393.369 556.626C393.369 556.626 393.787 549.465 381.118 548.209C381.118 548.209 384.974 546.292 384.974 539.814C384.974 533.336 377.196 534.922 373.957 538.161C370.718 541.4 370.101 549.597 370.101 549.597C370.101 549.597 359.9 549.465 353.025 552.77C348.588 554.875 344.009 556.664 339.32 558.124H333.106L329.956 563.787H324.447C324.447 563.787 320.04 570.662 330.506 576.721C336.299 580.255 342.861 582.335 349.632 582.78L355.691 590.074L356.881 588.906L354.678 582.913L357.916 579.674C360.869 580.372 363.65 581.661 366.091 583.463C368.449 585.821 372.15 581.128 372.15 581.128L377.108 581.811L372.018 585.402L385.789 587.319C385.789 587.319 387.023 581.965 401.896 585.821C401.896 585.821 418.421 573.284 431.928 574.65C445.435 576.016 443.76 583.331 456.033 588.708C468.306 594.084 451.075 606.203 451.075 606.203L453.279 611.006C453.279 611.006 452.441 615.964 437.436 615.964C422.431 615.964 422.431 611.843 406.457 614.465C390.482 617.088 384.555 620.789 384.555 620.789C384.555 620.789 347.935 627.399 341.347 620.789C334.759 614.179 264.229 616.382 264.229 616.382L232.655 607.569L205.487 606.842L189.27 610.565C189.27 610.565 170.916 601.752 167.236 601.752C163.557 601.752 153.289 606.159 141.545 606.159C129.801 606.159 115.104 611.293 115.104 611.293C115.104 611.293 85.7114 612.769 71.764 609.089C57.8166 605.409 51.559 599.174 51.559 599.174L57.0675 593.665L46.0506 588.531L53.7624 580.819L57.0675 577.514L50.4574 570.904L62.2234 565.748C62.2234 565.748 82.0538 556.934 129.052 568.701C176.05 580.467 206.897 521.68 206.897 521.68C209.163 519.674 210.789 517.047 211.573 514.124C212.356 511.201 212.263 508.112 211.304 505.242C208.263 494.512 217.077 473.844 233.338 470.825C249.599 467.806 284.566 427.021 284.566 423.452C284.566 419.882 279.058 419.86 281.812 417.106C284.566 414.352 314.863 397.275 318.432 400.867C322.001 404.458 331.939 398.377 331.939 398.377C336.655 393.923 342.801 391.291 349.279 390.951C359.194 390.951 357.277 381.036 357.277 381.036C357.277 381.036 370.498 368.08 376.557 370.019C382.616 371.958 387.838 371.936 389.777 360.919C391.716 349.902 374.354 343.578 376.006 337.783C377.659 331.988 379.311 326.502 374.905 325.664C370.498 324.827 373.252 316.035 382.881 312.444C392.51 308.852 385.084 291.247 394.448 285.738C403.813 280.23 417.32 276.925 415.931 270.579C414.543 264.233 415.931 219.901 410.159 214.128C404.386 208.355 386.186 150.779 401.059 138.925C415.931 127.071 436.423 132.05 436.423 132.05Z" fill="#009245"/>
<path d="M1182.99 221.289C1182.99 221.289 1171.42 224.417 1168.32 221.289C1165.21 218.16 1158.4 218.16 1158.4 218.16C1158.4 218.16 1151.42 211.748 1148.11 211.748C1144.81 211.748 1137.27 214.128 1134.89 211.748C1132.51 209.368 1123.5 205.865 1120.2 209.17C1116.89 212.475 1123.5 213.577 1120.2 219.46C1116.89 225.343 1123.15 231.204 1113.23 237.087C1103.32 242.97 1113.23 254.714 1113.23 254.714C1113.23 254.714 1120.57 263.881 1125.7 263.881C1130.84 263.881 1137.82 264.63 1140.78 267.56C1143.73 270.491 1145.91 271.24 1145.91 278.577C1145.91 285.915 1151.04 275.999 1151.04 275.999C1151.04 275.999 1156.55 288.867 1163.91 288.867C1171.27 288.867 1171.25 282.984 1171.25 282.984C1171.76 286.526 1173.29 289.842 1175.66 292.525C1178.3 294.77 1181.49 296.289 1184.9 296.934C1188.31 297.579 1191.83 297.328 1195.11 296.205C1202.82 293.627 1195.11 283.711 1195.11 283.711C1195.11 283.711 1214.59 270.138 1214.59 273.796C1214.59 277.454 1217.52 276.749 1220.82 299.884C1224.13 303.189 1227.06 287.016 1227.06 287.016H1230.37C1230.37 287.016 1234.04 280.406 1234.04 277.85C1234.04 275.294 1236.98 267.009 1242.31 267.009C1247.64 267.009 1249.09 256.918 1249.09 256.918C1249.09 256.918 1253.5 256.918 1255.15 250.858C1256.81 244.799 1264.52 244.799 1264.52 244.799C1264.52 244.799 1260.11 240.018 1262.31 237.814C1264.52 235.611 1263.06 226.07 1263.06 226.07L1256.81 215.78L1248.74 199.255L1242.48 197.426L1237.53 192.468L1229.26 196.324C1229.26 196.324 1227.06 191.366 1224.86 193.658C1222.65 195.949 1215.14 195.861 1215.14 195.861C1215.14 195.861 1210.31 202.978 1211 203.661C1211.68 204.344 1212.83 207.892 1208.42 208.994C1204.01 210.095 1203.02 214.678 1199.89 211.55C1196.76 208.421 1193.75 206.504 1193.75 210.095C1193.63 212.289 1192.78 214.379 1191.33 216.027C1189.87 217.675 1187.91 218.784 1185.75 219.173C1180.7 220.011 1182.99 221.289 1182.99 221.289Z" fill="#009245"/>
<path d="M852.707 244.689C852.707 244.689 859.317 242.486 862.071 252.136C864.825 261.787 871.986 282.984 871.986 282.984C871.986 282.984 872.251 290.41 869.232 293.45C866.213 296.491 862.335 280.494 852.707 279.128C843.078 277.762 852.707 264.255 852.707 264.255L845.546 257.645C845.546 257.645 846.096 242.706 852.707 244.689Z" fill="#009245"/>
<path d="M1361.69 587.055L1359.2 586.085H1355.21L1354.39 586.923H1351.22L1350.54 585.667H1351.9L1353.29 586.085L1354.39 584.984L1356.18 584.301H1359.06L1360.03 581.414L1362.92 578.506L1360.58 576.17L1357.41 576.853L1350.8 577.955L1347.78 576.17L1340.2 574.253L1329.74 569.692L1326.78 567.29C1326.78 567.29 1324.36 569.692 1323.55 569.692C1315.83 570.794 1314.18 568.59 1314.18 568.59L1312.37 566.894L1311.23 568.04L1311.69 569.141L1308.63 568.546L1307.75 567.687H1306.36L1305.63 568.414L1302.04 567.246C1302.04 567.246 1299.62 564.845 1299.62 564.338C1299.62 563.831 1296.64 561.341 1296.64 561.341L1297.37 560.614H1299.57L1301.95 559.512L1299.57 557.86L1299.29 556.295H1300.5L1301.18 553.872L1300.04 552.726L1297.28 553.541L1294.4 550.655L1296.6 548.451L1295.78 547.614H1290.52L1287.3 545.058C1287.3 545.058 1289.31 541.929 1287.65 542.48C1286 543.031 1282.61 541.378 1282.61 541.378L1283.07 539.351L1277.01 534.217H1275.45L1274.98 536.971C1274.98 536.971 1271.35 548.65 1271.35 553.056C1271.35 557.463 1273.9 555.634 1275.38 557.089C1275.8 557.421 1276.09 557.881 1276.23 558.399C1276.36 558.916 1276.32 559.462 1276.11 559.953L1282.28 561.407L1290.54 566.74C1290.54 566.74 1298.8 570.772 1299.35 570.772C1299.9 570.772 1302.46 573.35 1302.46 573.35L1305.21 577.58H1301.18L1300.17 575.002L1290.16 570.309L1287.41 573.063L1288.82 574.606C1287.16 574.53 1285.49 574.793 1283.93 575.377C1277.5 577.206 1266.94 567.555 1266.94 567.555L1269.61 564.911H1263.9L1254.54 563.434L1253.08 566.563L1248.85 566.74L1244.44 565.462L1234.53 566.012L1223.51 565.638L1218.73 562.884L1209.26 557.463L1196.43 549.509L1198.64 547.305L1201.57 546.556L1205.53 544.353L1208.73 547.57L1213.51 545.741L1217.92 537.566L1214.7 534.349L1213.6 524.61L1199.1 511.632L1188.92 502.819L1180.92 503.92L1172.79 499.513V495.371L1168.94 493.718L1164.4 490.149L1167.28 486.844L1172.11 481.467V473.734L1160.17 470.561L1158.8 472.411L1161 475.518V478.008L1159.81 480.674L1162.02 480.851L1161.38 482.878L1157.32 484.332L1154.48 485.808C1154.48 485.808 1160.17 487.285 1155.41 490.766C1150.65 494.247 1141.17 487.284 1141.17 487.284V488.651L1142.63 489.995L1141.17 491.14L1144.94 494.908L1140.97 495.459L1137.58 493.256L1133.17 489.995L1130.62 489.4L1127.27 487.968L1129.14 486.095L1132.82 487.196V482.415L1135.29 480.674L1139.06 484.442C1139.06 484.442 1142.23 483.12 1144.59 482.371C1140.69 480.895 1133.57 474.703 1133.57 474.703L1137.6 470.671L1145.31 459.654C1145.31 459.654 1140.73 448.262 1140.73 443.679C1140.73 439.096 1126.23 429.159 1112.64 424.752C1099.04 420.345 1100.89 418.516 1100.89 418.516L1101.8 413.933C1101.8 413.933 1097.22 409.328 1093.91 412.633C1090.61 415.938 1097.22 415.938 1097.22 415.938C1097.22 415.938 1097.22 422.548 1091.71 422.548C1086.2 422.548 1086.02 416.863 1083.27 414.109C1080.51 411.355 1091.71 401.99 1095.74 397.958C1099.77 393.926 1095.74 383.989 1095.74 383.989L1079.21 371.87L1078.86 381.058H1075.03C1074.27 383.201 1072.98 385.117 1071.28 386.627C1069.58 388.138 1067.53 389.193 1065.31 389.695C1057.4 391.7 1060.71 385.09 1060.71 385.09L1057.95 376.1C1057.95 376.1 1062.18 371.87 1062.18 368.212C1062.18 364.554 1073.57 360.853 1073.57 360.853C1073.57 360.853 1079.98 341.947 1073.57 345.803C1067.16 349.659 1058.15 363.805 1054.84 371.561C1051.54 379.317 1055.7 388.902 1055.7 388.902C1055.7 388.902 1051.16 393.441 1052.4 396.482C1053.63 399.523 1049.09 407.08 1049.09 407.08V404.745L1046.6 402.101C1046.6 402.101 1036.53 397.011 1039.02 402.101C1039.74 403.604 1040.13 405.245 1040.15 406.912C1040.17 408.578 1039.83 410.229 1039.16 411.752L1036.53 410.782L1036.14 415.387C1036.14 415.387 1038.34 415.387 1033.52 417.591C1032.07 418.324 1030.84 419.421 1029.95 420.773C1029.06 422.125 1028.53 423.686 1028.43 425.303C1028.43 425.303 1026.77 425.721 1024.42 423.386C1022.06 421.05 1016.31 423.386 1016.31 423.386C1016.31 423.386 1010.8 423.386 1011.48 420.08C1012.16 416.775 1004.32 414.44 1004.32 414.44C1001.43 409.614 993.987 404.657 993.987 404.657L992.555 403.202L990.131 400.801L986.143 399.016C986.143 399.016 987.179 388.197 985.306 386.346C983.433 384.495 985.306 379.582 985.306 379.582H982.706C982.706 379.582 983.807 375.175 980.899 375.175C977.991 375.175 978.563 371.473 975.391 371.473C972.218 371.473 971.579 376.563 964.969 389.409C958.358 402.255 956.155 420.631 956.155 420.631L948.994 418.252L944.037 423.209V426.514C944.037 426.514 935.421 438.809 933.769 437.157C932.116 435.504 917.971 434.579 917.971 434.579L899.242 439.36L895.562 443.04L887.498 441.189L877.583 445.596L871.325 455.511C871.325 455.511 865.817 453.308 865.817 450.377C865.817 447.447 872.074 440.087 872.074 440.087L878.684 439.735V432.75L887.961 431.869L895.849 439.779L897.677 432.794C897.677 432.794 912.374 429.864 906.138 419.948C899.903 410.033 887.035 404.524 887.035 404.524C887.035 404.524 845.546 381.741 848.652 389.277C851.759 396.812 838.186 412.963 838.186 412.963C838.186 412.963 834.529 410.033 829.571 428.564C824.614 447.094 812.12 446.015 812.12 446.015H803.681L801.103 460.711L812.12 460.337L817.254 470.252V480.167H813.597L805.136 475.386L798.173 482.371L799.627 477.964H794.493L784.953 479.793L778.695 496.319L772.46 490.083L770.256 477.964C770.256 477.964 760.341 480.167 758.865 489.708C758.383 492.542 757.232 495.219 755.507 497.519C753.783 499.818 751.535 501.673 748.95 502.929C748.95 502.929 730.97 511.742 730.97 506.983C730.97 502.224 749.324 496.693 751.902 491.185C754.48 485.676 741.238 480.542 741.238 480.542H733.173C733.173 480.542 723.985 486.051 739.034 486.051C754.083 486.051 734.275 496.319 734.275 496.319L717.001 508.085C717.001 508.085 709.113 500.174 706.358 502.929C703.604 505.683 693.513 502.929 693.513 502.929V498.896C693.513 498.896 681.394 491.912 683.95 486.403C686.506 480.895 667.072 477.964 667.072 477.964H658.259C658.259 477.964 656.055 480.167 647.594 484.2C639.133 488.232 647.594 504.934 647.594 504.934L656.408 505.507C656.408 505.507 678.442 502.929 678.442 508.812C678.428 511.311 677.48 513.714 675.784 515.549C674.087 517.384 671.766 518.518 669.276 518.727C665.221 518.727 666.698 526.065 666.698 526.065H674.409V527.915H682.011L686.528 533.777L702.679 539.285L704.53 544.066L714.797 546.644L712.968 554.709L721.407 558.014V564.624C716.422 562.481 711.058 561.357 705.631 561.319C696.818 561.319 702.326 578.594 702.326 578.594C707.207 577.003 712.506 577.287 717.19 579.388C721.874 581.49 725.608 585.26 727.665 589.964C736.104 607.238 789.36 609.794 789.36 609.794L811.019 604.286L837.063 596.53L840.764 592.828H849.137L846.647 595.318V602.082L857.29 600.253L852.508 596.948C852.508 596.948 859.868 593.269 859.868 596.948C859.868 600.628 884.81 601.531 884.81 601.531C884.81 601.531 884.81 598.05 891.42 601.531C898.03 605.013 909.421 601.531 909.421 601.531C909.421 601.531 907.945 608.34 894.725 608.34C881.505 608.34 878.376 614.025 878.376 614.025C884.175 619.21 890.556 623.706 897.391 627.422C910.611 635.133 936.215 632.93 936.215 632.93C936.215 632.93 962.655 630.374 940.996 630.374C919.337 630.374 902.062 620.459 894.152 615.303C886.242 610.147 902.062 611.271 917.86 605.387C933.659 599.504 941.723 602.082 941.723 602.082L933.284 606.864C933.284 606.864 937.691 606.864 940.269 614.201C942.847 621.538 956.42 618.366 956.42 618.366L957.896 612.747C957.896 612.747 963.955 618.806 968.163 614.576C972.372 610.345 971.843 614.576 971.843 614.576L980.282 618.366L987.267 615.303V620.084H1007.1C1007.1 620.084 998.284 624.116 1007.1 624.116C1015.91 624.116 1019.59 627.069 1019.59 627.069C1019.59 627.069 1044.93 623.764 1057.77 630C1070.62 636.235 1080.54 634.406 1080.54 634.406C1080.54 634.406 1116.54 634.406 1111.38 629.272C1106.23 624.138 1111.38 620.459 1111.38 620.459C1111.38 620.459 1144.43 617.176 1151.42 619.732C1158.4 622.288 1173.08 617.176 1173.08 617.176C1174.35 613.927 1176.29 610.983 1178.78 608.538C1182.31 605.013 1184.16 611.579 1184.69 613.848C1184.98 612.967 1187.22 611.645 1198.06 611.645C1214.21 611.645 1215.69 617.154 1215.69 617.154L1248.37 615.303C1248.37 615.303 1248.37 607.591 1266.37 609.442C1284.37 611.293 1289.13 607.591 1289.13 607.591C1289.13 607.591 1283.25 604.837 1300.15 604.837C1317.05 604.837 1321.08 607.591 1321.08 607.591C1321.08 607.591 1321.08 602.082 1327.69 602.082C1334.3 602.082 1327.69 607.591 1327.69 607.591L1353.4 604.66L1364 603.559V587.033L1361.69 587.055ZM789.778 569.979L776.558 569.251L767.744 568.15L762.412 571.455V579.167L768.471 582.472L777.836 587.43L777.571 589.809H766.951L763.734 587.43V584.719L761.311 582.913L755.934 581.26L750.161 578.241L746.989 573.548L748.641 570.243L754.568 567.907L753.334 565.704L748.928 564.69L745.887 562.773L746.438 559.182L744.521 556.295L739.409 553.409L735.839 552.307L733.085 547.9L733.57 546.733L735.553 545.08L737.36 543.978L736.809 545.146L738.307 545.851L742.163 547.438L751.902 548.848L752.673 547.151L755.251 546.887L757.455 547.944L756.86 549.443H761.641L763.844 552.792L760.804 555.833L763.558 559.689H766.488L770.344 557.111L774.2 558.212V560.79L771.27 564.646C771.27 564.646 772.922 567.224 774.575 567.224C776.227 567.224 785.217 566.123 787.421 566.123C789.841 566.522 792.193 567.264 794.405 568.326L789.778 569.979ZM832.281 592.277V591.925L823.005 591.462C820.302 591.44 817.601 591.594 814.919 591.925C813.616 592.783 812.155 593.375 810.622 593.665C809.52 593.665 811.019 592.145 811.019 592.145L814.566 590.272L813.178 589.258L813.729 587.055L814.015 584.852L817.783 584.389L821.992 582.648H825.936C826.597 582.648 822.454 585.579 822.454 585.579L821.242 587.782L823.93 588.245L826.773 586.68L831.819 586.13L833.008 587.782L831.642 589.986C832.952 589.82 834.277 589.82 835.586 589.986C836.027 590.118 832.303 592.277 832.303 592.277H832.281ZM841.69 503.59L828.073 506.785L825.319 514.144L828.91 518.154H822.851L817.893 515.532L815.69 510.839H808.639L804.497 514.981L799.407 518.154L794.582 513.329L789.91 504.78V497.971L799.539 496.737L808.639 499.205L818.554 500.593L825.98 495.349H835.63L841.69 500.593L843.188 502.113L841.69 503.59ZM885.911 522.209L881.13 523.685L878.376 526.439L871.964 524.963L869.21 521.305L865.156 523.31L862.049 524.236V522.407L858.193 521.658L860.749 518.044H855.439L854.513 515.048L856.166 511.324L859.845 506.675L864.605 501.276L870.488 495.305L869.386 492.11L866.808 489.907L868.108 481.6L871.766 480.851L877.473 478.934L881.328 477.92L886.639 479.947L885.537 487.284L889.217 489.907L887.608 492.661L884.986 495.261L889.217 495.724L887.189 497.751L884.633 499.58H880.403V502.158L877.561 505L881.967 509.407L890.781 512.161L891.684 515.092L885.911 522.209Z" fill="#009245"/>
<path d="M0 45.7428H51.2065L74.3419 46.8445L79.3215 49.7971H89.413L104.66 48.8717L102.457 52.1768C102.457 52.1768 109.971 52.9039 110.72 53.6531C112.595 54.4913 114.562 55.1051 116.581 55.4819L134.208 56.4073C134.208 56.4073 148.353 59.7125 149.279 59.7125C150.204 59.7125 165.055 60.9904 165.055 60.9904L174.97 59.7125C174.97 59.7125 180.214 58.6989 181.404 59.8887C184.033 61.2967 186.89 62.2291 189.843 62.643C190.768 62.643 197.555 61.365 198.656 61.365C201.033 61.9824 203.275 63.0359 205.267 64.4718C208.78 66.1763 212.401 67.6484 216.107 68.8787L254.49 59.1616C254.49 59.1616 259.073 60.065 259.998 60.065C260.924 60.065 271.015 59.6023 263.303 62.4667C255.592 65.3312 265.132 68.8787 265.132 68.8787L277.802 62.0921L280.908 57.2887L287.695 59.1396C287.695 59.1396 281.261 60.2413 288.797 65.0006C296.332 69.76 313.166 69.7821 313.166 69.7821L320.613 67.16C320.613 67.16 325.835 64.1413 329.559 66.4769C333.283 68.8126 335.067 67.0278 335.067 67.0278L346.084 66.0583L364.086 61.5193H368.118C368.118 61.5193 370.872 59.1396 374.728 62.9955C375.145 63.5272 375.668 63.9664 376.263 64.2851C376.859 64.6039 377.514 64.7952 378.187 64.847C378.861 64.8989 379.538 64.81 380.175 64.5861C380.812 64.3621 381.396 64.0081 381.889 63.5464V67.0278H387.948C387.948 67.0278 403.196 62.7972 405.201 64.8244C407.206 66.8515 395.66 66.8515 395.66 66.8515V69.7821L388.676 71.4346L394.559 75.4669L402.27 79.1465L409.982 82.0771L416.218 80.2483H421.374L419.897 85.3822L425.031 90.5382L427.058 88.511L437.15 92.7416L441.006 96.5976L445.611 98.2501H451.119L465.067 102.282H474.607V100.079L466.543 98.6027V96.0688H459.933L455.526 92.3891V89.4585L453.323 86.5059L456.804 83.0246L453.124 79.3228L450.194 76.3923L453.896 72.7126V69.9804L457.289 66.5871L449.489 58.787L474.629 52.3531L500.343 47.5937L516.493 45.7428H551.747L564.968 48.6954L578.188 51.2514L612.164 64.8464L639.155 70.9058L669.452 74.0346L688.731 76.9652H725.638L739.96 81.372L754.282 77.516H770.256L786.231 79.7194L798.349 80.8211L817.078 85.228H833.052L858.678 85.7788C861.076 88.2907 864.299 89.855 867.756 90.1856C874.048 90.7321 880.301 91.6518 886.484 92.9399L913.476 89.0839L937.713 85.228H959.747L963.338 81.6364H975.17L979.709 86.1975L1012.08 91.2874L1028.6 94.0416L1039.07 90.7365C1039.07 90.7365 1044.4 90.3399 1051.01 96.7959C1057.62 103.252 1061.74 98.9993 1061.74 98.9993L1067.25 100.916L1071.94 100.652L1074.41 98.162L1080.47 95.1433L1086.53 92.1026L1095.89 90.7365H1101.4L1108.94 92.1026L1117.93 93.7552H1123.72L1130.88 94.5925L1135 93.7552H1139.7L1138.04 90.7365L1134.19 89.3483L1139.7 87.1449H1143L1141.19 88.9517L1144.37 92.6535L1148.77 90.7365L1150.56 88.9517L1152.63 91.0009L1157.04 92.9399H1164.2L1170.81 93.7552H1176.87L1181.27 92.9399H1184.58L1186.78 94.5925L1194.49 91.2874H1202.49L1212.41 89.8992H1220.67L1227.54 87.9822L1234.71 87.4314H1242.15L1246.82 86.0432H1249.03L1252.88 85.4924L1255.64 82.7381L1263.35 85.4924L1265.55 83.289L1283 79.5432C1283 79.5432 1290.16 78.6177 1290.89 78.6177C1291.62 78.6177 1302.46 75.8635 1302.46 75.8635L1309.62 75.3126L1318.81 74.7618L1324.32 72.9329C1324.32 72.9329 1328.72 72.5584 1329.45 72.5584C1330.18 72.5584 1335.33 70.9058 1335.33 70.9058L1342.56 68.3058H1345.14L1342.01 65.7498L1337.78 61.5193L1330.99 60.2413C1330.99 60.2413 1321.63 57.487 1320.53 57.487C1318.94 57.1184 1317.4 56.5637 1315.94 55.8345L1321.81 54.3582L1312.99 53.4327V50.348L1317.6 48.1445C1317.6 48.1445 1324.21 47.3954 1324.93 47.3954L1332.82 47.2191L1355.61 47.0428H1364V0H0V45.7428Z" fill="#E9E7EA"/>
<path d="M1364 603.581L1353.4 604.682V609.64L1348.47 614.598H1316.67L1320.53 618.454H1272.6C1270.4 618.454 1261.04 616.25 1258.83 618.454C1256.63 620.657 1250.31 616.515 1248.37 618.454C1246.43 620.393 1239 620.371 1239 620.371L1243.54 624.932C1243.54 624.932 1250.5 623.191 1252.22 624.932L1255.59 628.303H1224.75L1231.05 622.001L1228.6 619.555L1215.76 617.176L1209.87 621.759L1201.61 625.064V628.303H1190.59C1187.84 628.303 1176.32 625.504 1173.52 628.303L1167.08 634.583L1161.88 629.933C1161.88 629.933 1154.17 628.832 1150.87 628.832C1147.56 628.832 1142.6 626.628 1139.85 626.628C1137.1 626.628 1142.6 626.628 1133.79 629.933C1124.98 633.238 1125.53 631.542 1116.72 634.583C1112.18 635.916 1107.96 638.166 1104.33 641.193C1104.33 641.193 1104.33 641.744 1101.29 644.784C1098.25 647.825 1089.17 644.784 1086.42 644.784C1083.66 644.784 1078.55 649.191 1075.4 646.128C1072.25 643.066 1067.69 643.683 1064.94 643.683C1062.18 643.683 1061.08 640.378 1057.77 643.683C1054.47 646.988 1058.33 647.252 1048.96 647.252H1021.97C1015.36 647.252 1006.79 649.742 1003.9 649.742C1001.02 649.742 996.807 647.539 986.804 647.539C976.801 647.539 971.182 645.886 968.208 645.886C965.233 645.886 949.699 641.479 947.496 643.683C945.292 645.886 939.123 649.742 935.664 649.742C932.204 649.742 926.696 653.598 923.105 653.598H886.595C862.776 653.598 838.12 645.335 838.12 645.335C838.12 645.335 851.341 646.437 799.737 646.437H711.823C697.501 646.437 679.874 648.64 664.45 648.64C649.027 648.64 634.705 659.657 626.993 659.657C619.281 659.657 619.281 650.844 610.467 650.844C601.654 650.844 605.51 654.149 605.51 646.988C605.51 639.827 609.366 649.742 609.366 631.564C609.366 613.386 602.205 618.343 595.044 611.182C587.883 604.021 581.824 589.148 577.417 593.555C573.01 597.962 578.518 593.555 560.891 593.555C543.264 593.555 535.553 588.046 535.553 588.046L524.536 582.538V572.623L509.112 566.695L492.587 571.521L480.468 582.538V604.572L469.451 613.165C469.451 613.165 463.943 623.61 459.536 623.61H419.875L402.248 634.627C402.248 634.627 394.669 639.166 390.13 634.627L377.35 621.869C371.013 622.936 364.606 623.54 358.181 623.676H332.842C324.029 623.676 327.532 616.625 316.978 616.625C306.424 616.625 315.303 616.074 298.117 616.074C280.93 616.074 271.676 618.498 264.163 616.382L238.075 609.111C232.588 607.569 226.926 613.231 226.926 613.231C226.926 613.231 221.527 602.875 217.253 607.15L212.846 611.447V623.676H202.865C198.952 623.688 195.172 622.261 192.245 619.665C192.245 619.665 194.977 604.814 189.27 610.521C183.563 616.228 190.746 616.206 172.018 616.206C159.478 616.074 146.963 615.08 134.56 613.231C130.618 614.489 126.383 614.489 122.442 613.231C115.104 611.248 111.579 611.821 100.408 611.535C92.6627 611.468 84.925 612.036 77.2724 613.231H46.0506C46.0506 613.231 45.3234 609.045 39.815 603.536C34.3066 598.028 22.188 598.028 22.188 598.028C22.188 598.028 13.3745 598.028 17.7812 593.621L28.7981 582.604C28.7981 582.604 23.6422 575.509 16.5474 582.604C11.7062 587.201 6.10835 590.928 0 593.621L0 681.956H1364V603.581Z" fill="#E9E7EA"/>
</svg>
