<svg xmlns="http://www.w3.org/2000/svg" xmlns:xlink="http://www.w3.org/1999/xlink" viewBox="0 0 619.05 309.52"><defs><style>.cls-1{fill:#29abe2;}.cls-2{fill:#009245;}.cls-3{fill:#e9e7ea;}</style></defs><title>safe-screeningAsset 3</title><g id="Layer_2" data-name="Layer 2"><g id="earth"><image id="reference" width="2048" height="1024" transform="scale(0.3)" xlink:href="../01_-_Default_baseColor.jpeg"/><g id="sea"><rect class="cls-1" width="619.05" height="309.52"/></g><g id="land"><path class="cls-2" d="M343.2,94.93l-2.88,3,1.44,1.44s-1.44,1.68-2.31,2.56a3.86,3.86,0,0,0-.75,2.62s-3.88,2.5-3.88,6.75-1.62,6.25-1.62,6.25-3.63,5.13-3.63,6.75,1.13,7.25,2.63,8.75,0,4.38,0,5.63A7.44,7.44,0,0,1,331,143.8a45.09,45.09,0,0,0-2.25,4.38s-4.63,3.62-3.63,4.62,1.25,5.38,1.25,5.38.47,3-1.39,3.75-5.36,0-5.36,0-1.12,4-4,4-9.75-3.38-9.75-3.38a11,11,0,0,1-9.5,0s-5.87,2.25-8.25,4.63-2.37,4-2.37,4l-4.5,4.5c-.5.5.25,3-1.25,4.5a8.7,8.7,0,0,1,1.25,7.37s.87,2.67-.75,3.5,3.54,6,3.54,6l.46,2.3,1.83,1.29.75,2,2.79.67a5.72,5.72,0,0,1,2.88,5c0,3.56,5.31,4.87,5.31,4.87l1.81,3.5,1.56-1.44h5l5.19,2.5,6.31.44,9.82.69,1.29-7.08,6.58-1.5,1.63-1.63,5.45-1.71,1.5,1.5v1.92l3.75,1.17,11.67-4.17,4,1.67,1.42-1.42,6.75-14.58h1.33l1-6.5,2.83-2.84.84-2.5,6-6,2.66-2.66,10.84,2.16s-1.17-13.16-11.84-17.83-8.83-13-8.83-13,5.5-11.67,3.33-15.67-10.33-7-10.33-8.83,3.33-4.83.83-7.33-7.33-10.34-12-13.5S343.2,94.93,343.2,94.93Z"/><path class="cls-2" d="M198.07,59.93s-10.5,4.75-5.25,10,5.25,2.75,5.25,2.75-4.5-.25-4.5,1.75,4.5,4,4.5,4,1.5,3.75,0,5.25,3.75-2.25,3.75,0a8.4,8.4,0,0,0,1.08,4s8.42-.75,8.42,3a3.85,3.85,0,0,0,3.63,4s3.75,1.16,4.62,4.62,3,3,3,3l3.54,4s-.75,3.5,0,4.25,2.63,2.92,5.63,2.92,10.81,3.4,10.81,13.21a26.39,26.39,0,0,0,2.62,8.06s5.69,4.31,4.38,8.06.19,3.25-3.13,3.25-2.15,3.35-4.81,3.75-5.87-.31-7.12.94-6.5,3.38-7.13,3.38-3.81.62-3.81,1.75.78,1.59-1.31,3.06c-.78.78-1.19,3.19-.78,3.19s-4.91,2.68-4.91,2.68l-5.25.38a9.58,9.58,0,0,0-2.88,2.87c-.81,1.57-3.06,1.57-3.06,1.57a2.61,2.61,0,0,1-.5,1.56c-.5.5-2.15.59-3.25,1.69s-3.56-.57-3.56-.57a2.93,2.93,0,0,0-2.13.94c-1,1-3.87,0-3.87,0s.18,1.16-1.16,1.16a1.27,1.27,0,0,0-1.34,1.28h-1.06s.93-1,0-1.38a6,6,0,0,0-1.94-.37s-.63.06,0,.69.84,1.15.62,1.37-.87-.19-2.37-.94a10.27,10.27,0,0,0-3.81-.75l-1.53-1.53v-1.53l-1.22-.44-1.13-1.12s-.69,1.5-3.75,1.5-3.31-1.25-3.31-1.25a5.42,5.42,0,0,0-4.69,4.06c-.87,3.75,1,5.63,1,5.63a2.45,2.45,0,0,1-2.5,2.5c-2.62.25-7.75-.57-7.19,0a3.88,3.88,0,0,1,1.19,3.43c-.31,1.63,2.69,4.63,2.69,4.63l-.31,1.69-5.94-.63s-.31-3.37-1.19-3.69-6.06-1.37-6.06-1.37l-.84.84h-1.35s-1.59,2.69-1.81,2.91-1.44,2.94-1.44,2.94v5.25l1,.37-.62,2.75a2.8,2.8,0,0,0,2.47,2.47c2.34.41,1.9,2,1.9,2h3.31l1-.31.57.56,2-1.19h3.43v1.94h4.88l1.81-1.19,1.38.75,2.31-2.31v-1.5s2.69-5.38,3.87-4.81,0,6.18,0,6.18-2.34,3.78-.5,5.63,7.25,3.37,8.32,5.31,1.93,7.13,1.93,7.13,1.54.31,1.54,1.53,4,1.84,4,1.84,3.06.31,3.37,1.44-1.44.69-1.44.69-.62,2.31,3.82,3.81,5.12,1.5,5.12,1.5l-1.43-2.06s-.44-1.56,1.09-1.1a7.16,7.16,0,0,1,2.65,1.6l4.13.81,3.37,1.94s-1.25-.38-1.25.43v1.63l-2.46-2.47-.66.66.66.65s-1.85-1-2.6-.28a4.32,4.32,0,0,1-1.87,1l-.44.44V237l-.41.41s1.78.34,1.78,1.09,4.32.75,4.32.75l1.68,1.69s4.38,2.62,5.82,2-2.63-3.5-2.63-3.5-4.37-3.94-1-3.38S218,234.87,218,234.87s4.25,6.12-4.81,6.12l-1.32-.44,2.63,2.63h-2l1.41,1.4-.29,2.41-2.31.5v.5s-6.19,2.06-6.87,3.88-6,7.09-6,7.09-6.16-8.41-8.47.72c0,0-3.19-.69-6.94,2.37a15,15,0,0,0-6.81,0c-3,.94.19-4.25.19-4.25l-2.13-2,4.25-3.18s.19-3.25-5.56-3.82c0,0,1.75-.87,1.75-3.81s-3.53-2.22-5-.75-1.75,5.19-1.75,5.19-4.63-.06-7.75,1.44A47.34,47.34,0,0,1,154,253.3h-2.82l-1.43,2.57h-2.5s-2,3.12,2.75,5.87a19.07,19.07,0,0,0,8.68,2.75l2.75,3.31.54-.53-1-2.72,1.47-1.47a10.2,10.2,0,0,1,3.71,1.72c1.07,1.07,2.75-1.06,2.75-1.06l2.25.31-2.31,1.63,6.25.87s.56-2.43,7.31-.68c0,0,7.5-5.69,13.63-5.07s5.37,3.94,10.94,6.38-2.25,7.94-2.25,7.94l1,2.18s-.38,2.25-7.19,2.25-6.81-1.87-14.06-.68-9.94,2.87-9.94,2.87-16.62,3-19.61,0-35-2-35-2l-14.33-4-12.33-.33L85.9,277.1s-8.33-4-10-4-6.33,2-11.66,2-12,2.33-12,2.33-13.34.67-19.67-1-9.17-4.5-9.17-4.5l2.5-2.5-5-2.33,3.5-3.5,1.5-1.5-3-3,5.34-2.34s9-4,30.33,1.34S93.9,236.76,93.9,236.76a7,7,0,0,0,2-7.46c-1.38-4.87,2.62-14.25,10-15.62s23.25-19.88,23.25-21.5-2.5-1.63-1.25-2.88,15-9,16.62-7.37,6.13-1.13,6.13-1.13a12.41,12.41,0,0,1,7.87-3.37c4.5,0,3.63-4.5,3.63-4.5s6-5.88,8.75-5,5.12.87,6-4.13-7-7.87-6.25-10.5,1.5-5.12-.5-5.5-.75-4.37,3.62-6,1-9.62,5.25-12.12,10.38-4,9.75-6.88,0-23-2.62-25.62-10.88-28.75-4.13-34.13S198.07,59.93,198.07,59.93Z"/><path class="cls-2" d="M536.9,100.43s-5.25,1.42-6.66,0-4.5-1.42-4.5-1.42-3.17-2.91-4.67-2.91-4.92,1.08-6,0-5.17-2.67-6.67-1.17,1.5,2,0,4.67,1.34,5.33-3.16,8,0,8,0,8,3.33,4.16,5.66,4.16,5.5.34,6.84,1.67,2.33,1.67,2.33,5,2.33-1.17,2.33-1.17,2.5,5.84,5.84,5.84,3.33-2.67,3.33-2.67a8.33,8.33,0,0,0,2,4.33,9.1,9.1,0,0,0,8.83,1.67c3.5-1.17,0-5.67,0-5.67s8.84-6.16,8.84-4.5,1.33,1.34,2.83,11.84c1.5,1.5,2.83-5.84,2.83-5.84h1.5s1.67-3,1.67-4.16,1.33-4.92,3.75-4.92,3.08-4.58,3.08-4.58,2,0,2.75-2.75,4.25-2.75,4.25-2.75-2-2.17-1-3.17.34-5.33.34-5.33l-2.84-4.67-3.66-7.5-2.84-.83-2.25-2.25L557.9,89.1s-1-2.25-2-1.21-4.41,1-4.41,1-2.19,3.23-1.88,3.54.83,1.92-1.17,2.42-2.45,2.58-3.87,1.16-2.79-2.29-2.79-.66a4.42,4.42,0,0,1-3.63,4.12C535.86,99.85,536.9,100.43,536.9,100.43Z"/><path class="cls-2" d="M387,111.05s3-1,4.25,3.38,4.5,14,4.5,14,.12,3.37-1.25,4.75-3.13-5.88-7.5-6.5,0-6.75,0-6.75l-3.25-3S384,110.15,387,111.05Z"/><path class="cls-2" d="M618,266.43l-1.13-.44h-1.81l-.37.38h-1.44l-.31-.57h.62l.63.19.5-.5.81-.31h1.31l.44-1.31,1.31-1.32-1.06-1.06-1.44.31-3,.5-1.37-.81-3.44-.87-4.75-2.07-1.34-1.09s-1.1,1.09-1.47,1.09c-3.5.5-4.25-.5-4.25-.5l-.82-.77-.52.52.21.5-1.39-.27-.4-.39h-.63l-.33.33-1.63-.53s-1.1-1.09-1.1-1.32-1.35-1.36-1.35-1.36l.33-.33h1l1.08-.5-1.08-.75-.13-.71h.55l.31-1.1-.52-.52-1.25.37-1.31-1.31,1-1-.37-.38H585.7l-1.46-1.16s.91-1.42.16-1.17-2.29-.5-2.29-.5l.21-.92-2.75-2.33h-.71l-.21,1.25S577,249,577,251s1.16,1.17,1.83,1.83a1.11,1.11,0,0,1,.33,1.3l2.8.66,3.75,2.42s3.75,1.83,4,1.83,1.41,1.17,1.41,1.17l1.25,1.92h-1.83l-.46-1.17-4.54-2.13-1.25,1.25.64.7a5.61,5.61,0,0,0-2.22.35c-2.92.83-7.71-3.55-7.71-3.55l1.21-1.2h-2.59l-4.25-.67-.66,1.42-1.92.08-2-.58-4.5.25-5-.17-2.17-1.25L548.82,253,543,249.39l1-1,1.33-.34,1.8-1,1.45,1.46,2.17-.83,2-3.71-1.46-1.46-.5-4.42-6.58-5.89-4.62-4-3.63.5-3.69-2v-1.88l-1.75-.75-2.06-1.62,1.31-1.5,2.19-2.44V215l-5.42-1.44-.62.84,1,1.41v1.13l-.54,1.21,1,.08-.29.92-1.84.66-1.29.67s2.58.67.42,2.25-6.46-1.58-6.46-1.58l0,.62.66.61-.66.52,1.71,1.71-1.8.25-1.54-1-2-1.48-1.16-.27-1.52-.65.85-.85,1.67.5v-2.17l1.12-.79,1.71,1.71s1.44-.6,2.51-.94c-1.77-.67-5-3.48-5-3.48l1.83-1.83,3.5-5s-2.08-5.17-2.08-7.25-6.58-6.59-12.75-8.59-5.33-2.83-5.33-2.83l.41-2.08s-2.08-2.09-3.58-.59,1.5,1.5,1.5,1.5,0,3-2.5,3-2.58-2.58-3.83-3.83,3.83-5.5,5.66-7.33,0-6.34,0-6.34l-7.5-5.5-.16,4.17H487.9a6.11,6.11,0,0,1-4.41,3.92c-3.59.91-2.09-2.09-2.09-2.09l-1.25-4.08s1.92-1.92,1.92-3.58,5.17-3.34,5.17-3.34,2.91-8.58,0-6.83-7,8.17-8.5,11.69.39,7.87.39,7.87-2.06,2.06-1.5,3.44-1.5,4.81-1.5,4.81v-1.06L475,182.49s-4.57-2.31-3.44,0a5.22,5.22,0,0,1,.06,4.38l-1.19-.44-.18,2.09s1,0-1.19,1a4.24,4.24,0,0,0-2.31,3.5s-.75.19-1.82-.87-3.68,0-3.68,0-2.5,0-2.19-1.5-3.25-2.56-3.25-2.56c-1.31-2.19-4.69-4.44-4.69-4.44l-.65-.66-1.1-1.09-1.81-.81s.47-4.91-.38-5.75,0-3.07,0-3.07H446s.5-2-.82-2-1.06-1.68-2.5-1.68-1.73,2.31-4.73,8.14-4,14.17-4,14.17l-3.25-1.08-2.25,2.25v1.5s-3.91,5.58-4.66,4.83-7.17-1.17-7.17-1.17l-8.5,2.17-1.67,1.67-3.66-.84-4.5,2-2.84,4.5s-2.5-1-2.5-2.33,2.84-4.67,2.84-4.67l3-.16v-3.17L403,196l3.58,3.59.83-3.17s6.67-1.33,3.84-5.83-8.67-7-8.67-7-18.83-10.34-17.42-6.92-4.75,10.75-4.75,10.75-1.66-1.33-3.91,7.08-7.92,7.92-7.92,7.92h-3.83l-1.17,6.67,5-.17,2.33,4.5v4.5h-1.66l-3.84-2.17-3.16,3.17.66-2h-2.33l-4.33.83-2.84,7.5-2.83-2.83-1-5.5s-4.5,1-5.17,5.33a8.2,8.2,0,0,1-4.5,6s-8.16,4-8.16,1.84,8.33-4.67,9.5-7.17-4.84-4.83-4.84-4.83h-3.66s-4.17,2.5,2.66,2.5-2.16,4.66-2.16,4.66l-7.84,5.34s-3.58-3.59-4.83-2.34-5.83,0-5.83,0v-1.83s-5.5-3.17-4.34-5.67-7.66-3.83-7.66-3.83h-4s-1,1-4.84,2.83,0,9.41,0,9.41l4,.26s10-1.17,10,1.5a4.54,4.54,0,0,1-4.16,4.5c-1.84,0-1.17,3.33-1.17,3.33h3.5v.84h3.45l2.05,2.66,7.33,2.5.84,2.17,4.66,1.17-.83,3.66,3.83,1.5v3a18.46,18.46,0,0,0-7.16-1.5c-4,0-1.5,7.84-1.5,7.84a9.38,9.38,0,0,1,11.5,5.16c3.83,7.84,28,9,28,9l9.83-2.5,11.82-3.52,1.68-1.68h3.8l-1.13,1.13v3.07l4.83-.83-2.17-1.5s3.34-1.67,3.34,0S401.57,273,401.57,273s0-1.58,3,0,8.17,0,8.17,0-.67,3.09-6.67,3.09-7.42,2.58-7.42,2.58a45.67,45.67,0,0,0,8.63,6.08c6,3.5,17.62,2.5,17.62,2.5s12-1.16,2.17-1.16-17.67-4.5-21.26-6.84,3.59-1.83,10.76-4.5,10.83-1.5,10.83-1.5l-3.83,2.17s2,0,3.17,3.33,7.33,1.89,7.33,1.89l.67-2.55s2.75,2.75,4.66.83,1.67,0,1.67,0l3.83,1.72,3.17-1.39v2.17h9s-4,1.83,0,1.83,5.67,1.34,5.67,1.34,11.5-1.5,17.33,1.33,10.33,2,10.33,2,16.34,0,14-2.33,0-4,0-4,15-1.49,18.17-.33,9.83-1.16,9.83-1.16a11.24,11.24,0,0,1,2.59-3.92c1.6-1.6,2.44,1.38,2.68,2.41.13-.4,1.15-1,6.07-1,7.33,0,8,2.5,8,2.5l14.83-.84s0-3.5,8.17-2.66,10.33-.84,10.33-.84-2.67-1.25,5-1.25,9.5,1.25,9.5,1.25,0-2.5,3-2.5,0,2.5,0,2.5l11.67-1.33,4.81-.5v-7.5Zm-259.56-7.75-6-.33-4-.5-2.42,1.5v3.5l2.75,1.5,4.25,2.25-.12,1.08h-4.82l-1.46-1.08v-1.23l-1.1-.82-2.44-.75-2.62-1.37-1.44-2.13.75-1.5,2.69-1.06-.56-1-2-.46-1.38-.87.25-1.63-.87-1.31-2.32-1.31-1.62-.5-1.25-2,.22-.53.9-.75.82-.5-.25.53.68.32,1.75.72,4.42.64.35-.77,1.17-.12,1,.48-.27.68h2.17l1,1.52-1.38,1.38,1.25,1.75h1.33l1.75-1.17,1.75.5v1.17l-1.33,1.75s.75,1.17,1.5,1.17,4.83-.5,5.83-.5a11.74,11.74,0,0,1,3.17,1Zm19.29,10.12,0-.16-4.21-.21a28.14,28.14,0,0,0-3.67.21,5.36,5.36,0,0,1-1.95.79c-.5,0,.18-.69.18-.69l1.61-.85-.63-.46.25-1,.13-1,1.71-.21,1.91-.79h1.79c.3,0-1.58,1.33-1.58,1.33l-.55,1,1.22.21,1.29-.71,2.29-.25.54.75-.62,1a7.12,7.12,0,0,1,1.79,0C379.43,267.82,377.74,268.8,377.74,268.8ZM382,228.55,375.82,230l-1.25,3.34,1.63,1.82h-2.75l-2.25-1.19-1-2.13H367l-1.88,1.88-2.31,1.44-2.19-2.19-2.12-3.88V226l4.37-.56,4.13,1.12,4.5.63,3.37-2.38h4.38l2.75,2.38.68.69ZM402.07,237l-2.17.67-1.25,1.25-2.91-.67-1.25-1.66-1.84.91-1.41.42v-.83l-1.75-.34,1.16-1.64h-2.41l-.42-1.36.75-1.69,1.67-2.11,2.16-2.45,2.67-2.71-.5-1.45-1.17-1,.59-3.77,1.66-.34,2.59-.87,1.75-.46,2.41.92-.5,3.33,1.67,1.19-.73,1.25-1.19,1.18,1.92.21-.92.92-1.16.83h-1.92v1.17l-1.29,1.29,2,2,4,1.25.41,1.33Z"/><path class="cls-3" d="M0,20.76H23.24l10.5.5L36,22.6h4.58l6.92-.42-1,1.5s3.41.33,3.75.67a11.84,11.84,0,0,0,2.66.83l8,.42s6.42,1.5,6.84,1.5,7.16.58,7.16.58l4.5-.58s2.38-.46,2.92.08a11.49,11.49,0,0,0,3.83,1.25c.42,0,3.5-.58,4-.58a9,9,0,0,1,3,1.41,40.52,40.52,0,0,0,4.92,2l17.42-4.41s2.08.41,2.5.41,5-.21,1.5,1.09.83,2.91.83,2.91l5.75-3.08L127.49,26l3.08.84s-2.92.5.5,2.66,11.06,2.17,11.06,2.17l3.38-1.19s2.37-1.37,4.06-.31,2.5.25,2.5.25l5-.44,8.17-2.06h1.83s1.25-1.08,3,.67a2.21,2.21,0,0,0,3.25.25v1.58h2.75s6.92-1.92,7.83-1-4.33.92-4.33.92v1.33l-3.17.75,2.67,1.83,3.5,1.67,3.5,1.33,2.83-.83h2.34l-.67,2.33,2.33,2.34.92-.92,4.58,1.92,1.75,1.75,2.09.75h2.5l6.33,1.83h4.33v-1l-3.66-.67V43.6h-3l-2-1.67V40.6l-1-1.34,1.58-1.58L205.65,36l-1.33-1.33L206,33V31.76l1.54-1.54L204,26.68l11.41-2.92,11.67-2.16,7.33-.84h16l6,1.34,6,1.16,15.42,6.17,12.25,2.75,13.75,1.42,8.75,1.33h16.75l6.5,2,6.5-1.75h7.25l7.25,1,5.5.5,8.5,2h7.25l11.63.25a6.56,6.56,0,0,0,4.12,2,72.39,72.39,0,0,1,8.5,1.25l12.25-1.75,11-1.75h10l1.63-1.63h5.37l2.06,2.07,14.69,2.31,7.5,1.25,4.75-1.5S474,41,477,43.93s4.87,1,4.87,1l2.5.87,2.13-.12,1.12-1.13,2.75-1.37,2.75-1.38,4.25-.62h2.5l3.42.62,4.08.75H510l3.25.38,1.87-.38h2.13l-.75-1.37-1.75-.63,2.5-1h1.5l-.82.82,1.44,1.68,2-.87.81-.81.94.93,2,.88h3.25l3,.37h2.75l2-.37h1.5l1,.75,3.5-1.5h3.63l4.5-.63H554l3.12-.87,3.25-.25h3.38l2.12-.63h1l1.75-.25,1.25-1.25,3.5,1.25,1-1,7.92-1.7s3.25-.42,3.58-.42,5.25-1.25,5.25-1.25l3.25-.25,4.17-.25,2.5-.83s2-.17,2.33-.17,2.67-.75,2.67-.75L609.32,31h1.17l-1.42-1.16-1.92-1.92-3.08-.58s-4.25-1.25-4.75-1.25a9.4,9.4,0,0,1-2.08-.75l2.66-.67-4-.42V22.85l2.09-1s3-.34,3.33-.34l3.58-.08,10.34-.08h3.81V0H0Z"/><path class="cls-3" d="M619.05,273.93l-4.81.5v2.25L612,278.93H597.57l1.75,1.75H577.57c-1,0-5.25-1-6.25,0s-3.87-.88-4.75,0-4.25.87-4.25.87l2.06,2.07s3.16-.79,3.94,0l1.53,1.53h-14l2.86-2.86-1.11-1.11-5.83-1.08-2.67,2.08-3.75,1.5v1.47h-5c-1.25,0-6.48-1.27-7.75,0L529.68,288l-2.36-2.11s-3.5-.5-5-.5-3.75-1-5-1,1.25,0-2.75,1.5-3.75.73-7.75,2.11a15.69,15.69,0,0,0-5.62,3s0,.25-1.38,1.63-5.5,0-6.75,0-3.57,2-5,.61-3.5-1.11-4.75-1.11-1.75-1.5-3.25,0,.25,1.62-4,1.62H463.82c-3,0-6.89,1.13-8.2,1.13s-3.22-1-7.76-1-7.09-.75-8.44-.75-8.4-2-9.4-1-3.8,2.75-5.37,2.75-4.07,1.75-5.7,1.75H402.38c-10.81,0-22-3.75-22-3.75s6,.5-17.42.5h-39.9c-6.5,0-14.5,1-21.5,1s-13.5,5-17,5-3.5-4-7.5-4-2.25,1.5-2.25-1.75,1.75,1.25,1.75-7-3.25-6-6.5-9.25-6-10-8-8,.5,0-7.5,0-11.5-2.5-11.5-2.5l-5-2.5v-4.5l-7-2.69-7.5,2.19-5.5,5v10l-5,3.9s-2.5,4.74-4.5,4.74h-18l-8,5s-3.44,2.06-5.5,0l-5.8-5.79a60,60,0,0,1-8.7.82h-11.5c-4,0-2.41-3.2-7.2-3.2s-.76-.25-8.56-.25-12,1.1-15.41.14l-11.84-3.3c-2.49-.7-5.06,1.87-5.06,1.87s-2.45-4.7-4.39-2.76l-2,1.95v5.55H92.07a7.23,7.23,0,0,1-4.82-1.82s1.24-6.74-1.35-4.15.67,2.58-7.83,2.58a124.23,124.23,0,0,1-17-1.35,9.05,9.05,0,0,1-5.5,0c-3.33-.9-4.93-.64-10-.77a64.41,64.41,0,0,0-10.5.77H20.9s-.33-1.9-2.83-4.4-8-2.5-8-2.5-4,0-2-2l5-5s-2.34-3.22-5.56,0a26.34,26.34,0,0,1-7.51,5v40.09H619.05Z"/></g></g></g></svg>