<svg xmlns="http://www.w3.org/2000/svg" viewBox="0 0 146 146"><defs><style>.cls-1{fill:#893eff;}.cls-2{fill:#fff;}</style></defs><title>safe-screeningAsset 6</title><g id="Layer_2" data-name="Layer 2"><g id="Layer_1-2" data-name="Layer 1"><circle class="cls-1" cx="73" cy="73" r="68"/><path class="cls-2" d="M73,5A68,68,0,1,1,5,73,68,68,0,0,1,73,5m0-5a73,73,0,1,0,73,73A73.09,73.09,0,0,0,73,0Z"/><path class="cls-2" d="M69.18,119.06C41.94,79.57,36.88,75.51,36.88,61a36,36,0,0,1,72,0c0,14.51-5,18.57-32.3,58.06a4.5,4.5,0,0,1-7.4,0ZM72.88,76a15,15,0,1,0-15-15A15,15,0,0,0,72.88,76Z"/></g></g></svg>